<svg width="15" height="24" viewBox="0 0 15 24" fill="none" xmlns="http://www.w3.org/2000/svg">
<path d="M14.4408 24H13.5136C13.5136 23.7466 13.5167 23.4932 13.5167 23.2367C13.5353 20.6778 13.5569 18.0294 11.7521 15.625C10.6427 14.1478 8.60301 12.7541 7.11344 11.7373C6.63134 11.4097 6.21414 11.1254 5.88965 10.8782L5.76294 10.7824C4.36299 9.72856 2.91051 8.63456 2.06374 7.03992C1.08718 5.2104 0.765775 2.90806 1.07791 0L1.99884 0.0988926C1.70835 2.81535 1.99575 4.94463 2.8796 6.60417C3.63366 8.01648 4.99961 9.04867 6.3223 10.0438L6.44901 10.1396C6.75496 10.3714 7.16289 10.6495 7.63572 10.9709C9.17783 12.0247 11.2917 13.4679 12.4938 15.0657C14.484 17.7203 14.4624 20.6531 14.4439 23.2398C14.4439 23.4994 14.4408 23.7497 14.4408 24Z" fill="#112949"/>
<path d="M1.43288 24H0.505758C0.505758 23.7497 0.502668 23.4994 0.502668 23.2429C0.484125 20.6562 0.462493 17.7234 2.45271 15.0688C3.65487 13.4679 5.7687 12.0247 7.31081 10.974C7.78364 10.6526 8.19157 10.3745 8.49752 10.1427L8.62422 10.0469C9.94691 9.04867 11.3129 8.01957 12.0669 6.60726C12.9508 4.94772 13.2413 2.81844 12.9477 0.101983L13.8717 0C14.1838 2.90806 13.8624 5.2104 12.8859 7.03992C12.036 8.63456 10.5866 9.72856 9.18358 10.7855L9.05688 10.8813C8.73239 11.1254 8.31518 11.4097 7.83308 11.7404C6.34351 12.7571 4.30385 14.1478 3.1944 15.6281C1.38961 18.0324 1.41124 20.6809 1.42979 23.2398C1.43288 23.4932 1.43288 23.7466 1.43288 24Z" fill="#112949"/>
<path d="M10.2683 0.126709H1.61523V1.05383H10.2683V0.126709Z" fill="#112949"/>
<path d="M8.87777 2.83081H1.53809V3.75793H8.87777V2.83081Z" fill="#112949"/>
<path d="M7.7184 5.99847H2.54199V6.92559H7.7184V5.99847Z" fill="#112949"/>
<path d="M7.25532 8.54803H4.24219V9.47515H7.25532V8.54803Z" fill="#112949"/>
<path d="M13.7449 22.1458H5.0918V23.0729H13.7449V22.1458Z" fill="#112949"/>
<path d="M13.8221 19.4417H6.48242V20.3688H13.8221V19.4417Z" fill="#112949"/>
<path d="M12.818 16.274H7.6416V17.2011H12.818V16.274Z" fill="#112949"/>
<path d="M11.0404 13.7244H8.10449V14.6515H11.0404V13.7244Z" fill="#112949"/>
</svg>
