<svg width="14" height="24" viewBox="0 0 14 24" fill="none" xmlns="http://www.w3.org/2000/svg">
<path d="M13.9408 24H13.0136C13.0136 23.7466 13.0167 23.4932 13.0167 23.2367C13.0353 20.6778 13.0569 18.0294 11.2521 15.625C10.1427 14.1478 8.10301 12.7541 6.61344 11.7373C6.13134 11.4097 5.71414 11.1254 5.38965 10.8782L5.26294 10.7824C3.86299 9.72856 2.41051 8.63456 1.56374 7.03992C0.587176 5.2104 0.265775 2.90806 0.577905 0L1.49884 0.0988926C1.20835 2.81535 1.49575 4.94463 2.3796 6.60417C3.13366 8.01648 4.49961 9.04867 5.8223 10.0438L5.94901 10.1396C6.25496 10.3714 6.66289 10.6495 7.13572 10.9709C8.67783 12.0247 10.7917 13.4679 11.9938 15.0657C13.984 17.7203 13.9624 20.6531 13.9439 23.2398C13.9439 23.4994 13.9408 23.7497 13.9408 24Z" fill="#FF7943"/>
<path d="M0.932876 24H0.00575804C0.00575804 23.7497 0.00266765 23.4994 0.00266765 23.2429C-0.0158747 20.6562 -0.0375075 17.7234 1.95271 15.0688C3.15487 13.4679 5.2687 12.0247 6.81081 10.974C7.28364 10.6526 7.69157 10.3745 7.99752 10.1427L8.12422 10.0469C9.44691 9.04867 10.8129 8.01957 11.5669 6.60726C12.4508 4.94772 12.7413 2.81844 12.4477 0.101983L13.3717 0C13.6838 2.90806 13.3624 5.2104 12.3859 7.03992C11.536 8.63456 10.0866 9.72856 8.68358 10.7855L8.55688 10.8813C8.23239 11.1254 7.81518 11.4097 7.33308 11.7404C5.84351 12.7571 3.80385 14.1478 2.6944 15.6281C0.889611 18.0324 0.911243 20.6809 0.929786 23.2398C0.932876 23.4932 0.932876 23.7466 0.932876 24Z" fill="#FF7943"/>
<path d="M9.76834 0.126709H1.11523V1.05383H9.76834V0.126709Z" fill="#FF7943"/>
<path d="M8.37777 2.8308H1.03809V3.75792H8.37777V2.8308Z" fill="#FF7943"/>
<path d="M7.2184 5.99846H2.04199V6.92558H7.2184V5.99846Z" fill="#FF7943"/>
<path d="M6.75532 8.54803H3.74219V9.47515H6.75532V8.54803Z" fill="#FF7943"/>
<path d="M13.2449 22.1458H4.5918V23.0729H13.2449V22.1458Z" fill="#FF7943"/>
<path d="M13.3221 19.4417H5.98242V20.3688H13.3221V19.4417Z" fill="#FF7943"/>
<path d="M12.318 16.274H7.1416V17.2011H12.318V16.274Z" fill="#FF7943"/>
<path d="M10.5404 13.7244H7.60449V14.6516H10.5404V13.7244Z" fill="#FF7943"/>
</svg>
