<svg width="41" height="40" viewBox="0 0 41 40" fill="none" xmlns="http://www.w3.org/2000/svg">
<rect x="0.666992" width="40" height="40" fill="#F8F8F8"/>
<g clip-path="url(#clip0_127_3226)">
<path d="M18.4245 27.4629C17.6721 27.4971 16.9421 27.5483 16.2113 27.5603C14.0326 27.5958 11.8566 27.5566 9.71244 27.1003C9.2644 27.0048 8.82893 26.8207 8.40513 26.6352C8.04868 26.4797 7.87943 26.1876 7.88078 25.758C7.89065 20.982 7.88751 16.2064 7.88796 11.4303C7.88796 11.2997 7.90726 11.1673 7.8902 11.0395C7.8269 10.568 8.06035 10.286 8.43791 10.0844C9.02332 9.77202 9.65902 9.6299 10.3014 9.52655C12.6691 9.14496 15.053 9.09098 17.4391 9.24509C18.526 9.31522 19.6111 9.4578 20.6876 9.62852C21.1662 9.70419 21.6317 9.90721 22.0856 10.0969C22.4587 10.2528 22.6517 10.5495 22.6396 11.0026C22.6158 11.9093 22.6374 12.8173 22.6288 13.7249C22.6275 13.8919 22.6688 13.9768 22.8237 14.0534C25.0068 15.129 26.2158 17.6727 25.6663 20.091C25.2838 21.7747 24.315 23.008 22.808 23.7837C22.6751 23.8519 22.6261 23.9267 22.6288 24.079C22.6378 24.6405 22.614 25.2025 22.6383 25.7631C22.6567 26.1964 22.4533 26.4538 22.1121 26.6435C21.5581 26.9512 20.9529 27.086 20.3415 27.199C20.0699 27.2493 19.7965 27.2871 19.4643 27.3402C19.5639 27.7836 19.6245 28.2252 19.7633 28.6391C20.1408 29.7617 20.8295 30.6517 21.8373 31.234C23.441 32.1606 25.0684 32.1555 26.6535 31.1884C27.9389 30.404 28.6657 29.2075 28.9005 27.6955C28.9333 27.4837 28.9418 27.2664 28.9431 27.0518C28.9517 25.6994 28.9602 24.347 28.9593 22.9942C28.9579 20.9644 28.9476 18.9347 28.9463 16.905C28.9463 16.7467 28.9131 16.6724 28.751 16.6124C28.1427 16.3873 27.6699 15.9623 27.2807 15.4437C26.4547 14.3427 25.9299 13.1002 25.8104 11.7155C25.6785 10.1804 26.1301 8.82428 27.2996 7.82164C28.8044 6.53153 31.0087 6.78346 32.2289 8.43762C33.2157 9.77525 33.3638 11.2711 32.9234 12.8556C32.6514 13.8338 32.2307 14.7336 31.5999 15.5244C31.1735 16.0587 30.6644 16.4717 29.999 16.6849C29.999 16.7633 29.999 16.8385 29.999 16.9137C29.999 19.2365 29.9995 21.5592 29.999 23.8819C29.999 24.9663 30.0062 26.0506 29.995 27.1349C29.9699 29.621 28.4026 31.8588 26.1099 32.652C24.2603 33.2919 22.4982 33.0575 20.8977 31.9096C19.4701 30.8861 18.6553 29.4535 18.4573 27.6641C18.4506 27.6041 18.4375 27.5446 18.4241 27.4643L18.4245 27.4629ZM12.0985 12.2881C12.0985 12.4034 12.0985 12.4939 12.0985 12.5843C12.0985 15.9521 12.0981 19.3204 12.0981 22.6883C12.0981 22.9877 12.0999 23.2872 12.0999 23.5862C12.0999 24.4467 12.1017 25.3072 12.0958 26.1673C12.095 26.308 12.1452 26.3537 12.2763 26.3611C12.7989 26.3902 13.3206 26.4345 13.8436 26.4603C15.295 26.5323 16.7468 26.5092 18.1906 26.3537C19.1989 26.2453 20.201 26.0663 21.2017 25.8928C21.5761 25.8277 21.5707 25.794 21.5707 25.4069C21.5707 25.0761 21.5716 24.7457 21.5698 24.4149C21.5698 24.3572 21.5586 24.2995 21.5523 24.2405C18.0281 24.8855 15.4494 22.1078 15.2721 19.3624C15.1733 17.8384 15.5801 16.4763 16.5727 15.3422C17.9038 13.8209 19.5886 13.2677 21.5599 13.5865V11.7441C20.0218 12.2221 18.4465 12.3056 16.8725 12.3887C15.2891 12.4722 13.7062 12.4247 12.099 12.2876L12.0985 12.2881ZM24.7294 18.9246C24.7469 16.5695 22.8695 14.6237 20.5781 14.5882C18.31 14.5527 16.3446 16.4477 16.3204 18.835C16.2961 21.2464 18.1475 23.2175 20.4443 23.2369C22.8219 23.2567 24.7114 21.3553 24.7294 18.925V18.9246ZM26.8529 11.0164C26.843 12.0306 27.0576 12.8764 27.4917 13.7669C27.788 14.375 28.1436 14.937 28.6801 15.3602C29.1528 15.733 29.6884 15.7763 30.1719 15.4178C30.417 15.236 30.6464 15.0146 30.8345 14.7714C31.4504 13.9768 31.8298 13.0651 32.0228 12.0708C32.2365 10.9712 32.0278 9.96812 31.3634 9.07206C30.487 7.89131 28.8489 7.76258 27.8141 8.7989C27.1321 9.48225 26.8704 10.3428 26.8529 11.0164ZM11.0462 26.2582V12.2166C10.3414 12.0685 9.64959 11.9231 8.95149 11.7768V25.8143C9.63073 25.9583 10.3208 26.1046 11.0462 26.2582ZM9.60874 10.7963C13.3722 11.5042 17.1352 11.5074 20.8982 10.7963C17.1347 10.089 13.3717 10.0932 9.60874 10.7963Z" fill="#FF7943"/>
<path d="M21.058 17.0421C21.058 17.1879 21.0607 17.3342 21.0575 17.48C21.0513 17.7702 21.0611 18.0125 21.322 18.2483C21.7305 18.6179 21.6479 19.3515 21.2268 19.7252C20.7738 20.1276 20.0973 20.0828 19.7206 19.626C19.3426 19.1669 19.3888 18.4877 19.8351 18.1278C19.955 18.0314 19.9963 17.9304 19.994 17.779C19.9864 17.2802 19.9891 16.781 19.9913 16.2817C19.9927 15.9417 20.2364 15.6676 20.5291 15.6694C20.8394 15.6713 21.0553 15.9191 21.0593 16.2822C21.062 16.5355 21.0598 16.7888 21.0598 17.0426H21.058V17.0421Z" fill="#FF7943"/>
</g>
<defs>
<clipPath id="clip0_127_3226">
<rect width="25.2792" height="26" fill="white" transform="translate(7.87988 7)"/>
</clipPath>
</defs>
</svg>
