<svg width="27" height="28" viewBox="0 0 27 28" fill="none" xmlns="http://www.w3.org/2000/svg">
<path fill-rule="evenodd" clip-rule="evenodd" d="M10.834 21.4972C11.0691 21.4847 11.3057 21.4722 11.5446 21.4613L11.5441 21.4627C11.5488 21.4903 11.5533 21.5154 11.5576 21.5389C11.5658 21.5839 11.5729 21.6231 11.5774 21.6625C11.7753 23.4519 12.5902 24.8845 14.0178 25.9079C15.6182 27.0559 17.3803 27.2903 19.2299 26.6504C21.5227 25.8572 23.0899 23.6194 23.115 21.1333C23.1231 20.3533 23.1217 19.5734 23.1202 18.7935C23.1197 18.4891 23.1191 18.1847 23.1191 17.8803C23.1194 16.3318 23.1193 14.7834 23.1192 13.2349C23.1191 12.4606 23.1191 11.6864 23.1191 10.9121V10.6833C23.7844 10.4701 24.2935 10.0571 24.72 9.52282C25.3508 8.73196 25.7714 7.83221 26.0435 6.85402C26.4839 5.26954 26.3357 3.77365 25.349 2.43602C24.1287 0.781862 21.9245 0.529933 20.4196 1.82004C19.2501 2.82268 18.7985 4.17876 18.9305 5.71388C19.0499 7.09857 19.5747 8.34115 20.4008 9.44207C20.79 9.96069 21.2627 10.3857 21.871 10.6108C22.0331 10.6708 22.0663 10.7451 22.0663 10.9034C22.067 11.9182 22.0699 12.9331 22.0728 13.948C22.0758 14.9628 22.0787 15.9777 22.0793 16.9926C22.0802 18.3454 22.0717 19.6978 22.0632 21.0502C22.0618 21.2648 22.0533 21.4821 22.0205 21.6939C21.7857 23.2059 21.0589 24.4024 19.7736 25.1868C18.1884 26.1539 16.561 26.159 14.9574 25.2324C13.9495 24.6501 13.2609 23.7601 12.8833 22.6375C12.7885 22.3546 12.7302 22.0587 12.6709 21.7582C12.6435 21.6191 12.6159 21.4789 12.5843 21.3386C12.693 21.3212 12.7954 21.3055 12.8935 21.2904C13.0952 21.2595 13.2788 21.2313 13.4615 21.1974C14.073 21.0844 14.6782 20.9496 15.2322 20.6419C15.5733 20.4522 15.7767 20.1948 15.7583 19.7615C15.7439 19.4283 15.7465 19.0945 15.749 18.7607C15.7508 18.5329 15.7525 18.3051 15.7489 18.0774C15.7462 17.9251 15.7951 17.8503 15.928 17.7821C17.4351 17.0064 18.4039 15.7731 18.7864 14.0894C19.3359 11.6711 18.1269 9.12739 15.9437 8.05184C15.7888 7.97525 15.7475 7.89035 15.7489 7.72332C15.7523 7.36135 15.7509 6.9993 15.7495 6.6373C15.7474 6.09163 15.7453 5.54606 15.7597 5.001C15.7718 4.54789 15.5787 4.25121 15.2057 4.09525C15.1784 4.08385 15.1511 4.07241 15.1237 4.06095C14.6958 3.88167 14.2575 3.69804 13.8077 3.62692C12.7311 3.4562 11.646 3.31362 10.5592 3.24349C8.17306 3.08937 5.7892 3.14336 3.4215 3.52495C2.77907 3.6283 2.14338 3.77042 1.55796 4.08279C1.18041 4.28443 0.946959 4.56635 1.01026 5.03791C1.0214 5.12135 1.01704 5.20676 1.01266 5.29234C1.01034 5.33784 1.00801 5.38339 1.00801 5.42872C1.00792 6.46139 1.00799 7.49403 1.00806 8.52667C1.00832 12.2699 1.00857 16.013 1.00083 19.7564C0.999485 20.186 1.16873 20.4781 1.52519 20.6336C1.94899 20.8191 2.38446 21.0032 2.8325 21.0987C4.97662 21.555 7.15262 21.5942 9.33132 21.5587C9.83015 21.5505 10.3286 21.5241 10.834 21.4972ZM5.2186 6.58271V6.28649L5.21905 6.28602C6.82625 6.42306 8.4092 6.47059 9.9926 6.38707C11.5666 6.30402 13.1419 6.2205 14.68 5.74248V7.58489C12.7087 7.26606 11.0238 7.81929 9.69271 9.34056C8.70011 10.4747 8.29337 11.8368 8.39214 13.3608C8.56947 16.1062 11.1482 18.8839 14.6723 18.2389C14.6743 18.2574 14.6768 18.2757 14.6792 18.294C14.6845 18.3341 14.6898 18.3737 14.6898 18.4133C14.6912 18.6614 14.691 18.9092 14.6908 19.1571C14.6908 19.2398 14.6907 19.3226 14.6907 19.4053L14.6907 19.4215C14.6908 19.7934 14.6908 19.827 14.3217 19.8912C14.2528 19.9031 14.1839 19.9151 14.1149 19.9271C13.183 20.089 12.2495 20.2511 11.3107 20.3521C9.8669 20.5076 8.41504 20.5307 6.96362 20.4587C6.67691 20.4445 6.3906 20.4248 6.10432 20.4051C5.86839 20.3889 5.63247 20.3726 5.39638 20.3595C5.26529 20.3521 5.21501 20.3064 5.21591 20.1657C5.22063 19.4695 5.22035 18.7729 5.22008 18.0763C5.22001 17.9124 5.21995 17.7485 5.21995 17.5846C5.21995 17.4351 5.2195 17.2856 5.21905 17.136C5.2186 16.9862 5.21815 16.8365 5.21815 16.6867C5.21815 15.0028 5.21826 13.3187 5.21838 11.6347C5.21849 9.95066 5.2186 8.26663 5.2186 6.58271ZM13.6981 8.58662C15.9895 8.62214 17.867 10.5679 17.8495 12.9229V12.9234C17.8315 15.3537 15.9419 17.2551 13.5644 17.2353C11.2676 17.2159 9.41617 15.2448 9.44041 12.8334C9.46465 10.4461 11.4301 8.55109 13.6981 8.58662ZM20.6118 7.76531C20.1776 6.87478 19.9631 6.02902 19.9729 5.01484C19.9904 4.34118 20.2522 3.48065 20.9341 2.7973C21.9689 1.76097 23.6071 1.88971 24.4834 3.07046C25.1478 3.96652 25.3566 4.96962 25.1429 6.06916C24.9499 7.0635 24.5705 7.97525 23.9546 8.76979C23.7665 9.01296 23.537 9.23444 23.2919 9.41623C22.8084 9.77475 22.2728 9.73137 21.8001 9.35855C21.2636 8.93544 20.9081 8.37344 20.6118 7.76531ZM4.16629 6.21497V20.2566L2.07155 19.8127V5.77524C2.76965 5.92151 3.46146 6.06685 4.16629 6.21497ZM2.72879 4.79475C6.49224 5.50255 10.2552 5.50578 14.0182 4.79475C10.2548 4.0874 6.49179 4.09156 2.72879 4.79475ZM14.3793 12.5093C14.3791 12.4634 14.3788 12.4174 14.3788 12.3716H14.3806C14.3806 12.2922 14.3808 12.2129 14.381 12.1337C14.3815 11.9594 14.382 11.7853 14.3801 11.6112C14.3761 11.248 14.1602 11.0003 13.8499 10.9984C13.5572 10.9966 13.3135 11.2706 13.3121 11.6107L13.3118 11.6731C13.3097 12.1516 13.3075 12.63 13.3148 13.108C13.3171 13.2593 13.2758 13.3604 13.1559 13.4568C12.7096 13.8167 12.6634 14.4959 13.0414 14.955C13.4181 15.4118 14.0946 15.4566 14.5476 15.0542C14.9687 14.6805 15.0513 13.9468 14.6428 13.5772C14.3819 13.3414 14.3721 13.0992 14.3783 12.809C14.3805 12.7092 14.3799 12.6092 14.3793 12.5093Z" fill="#FF7943"/>
<path d="M11.5446 21.4613L12.0203 21.6153L12.2424 20.9292L11.5219 20.9619L11.5446 21.4613ZM10.834 21.4972L10.8075 20.9979H10.8075L10.834 21.4972ZM11.5441 21.4627L11.0684 21.3087L11.0308 21.425L11.051 21.5454L11.5441 21.4627ZM11.5576 21.5389L11.0657 21.6284L11.0657 21.6285L11.5576 21.5389ZM11.5774 21.6625L12.0743 21.6075L12.0742 21.6067L11.5774 21.6625ZM14.0178 25.9079L14.3092 25.5017L14.3091 25.5016L14.0178 25.9079ZM19.2299 26.6504L19.0665 26.1778L19.0665 26.1778L19.2299 26.6504ZM23.115 21.1333L22.6151 21.1281V21.1282L23.115 21.1333ZM23.1202 18.7935L23.6202 18.7925V18.7925L23.1202 18.7935ZM23.1191 17.8803L22.6191 17.8802V17.8803H23.1191ZM23.1191 10.6833L22.9665 10.2071L22.6191 10.3184V10.6833H23.1191ZM24.72 9.52282L25.1108 9.83474L25.1109 9.83458L24.72 9.52282ZM26.0435 6.85402L26.5252 6.988L26.5252 6.98792L26.0435 6.85402ZM25.349 2.43602L24.9466 2.73283L24.9466 2.73284L25.349 2.43602ZM20.4196 1.82004L20.0942 1.44044L20.0942 1.44044L20.4196 1.82004ZM18.9305 5.71388L18.4323 5.75671L18.4324 5.75684L18.9305 5.71388ZM20.4008 9.44207L20.0008 9.74215L20.0009 9.7422L20.4008 9.44207ZM21.871 10.6108L21.6975 11.0797L21.6975 11.0797L21.871 10.6108ZM22.0663 10.9034H21.5663V10.9037L22.0663 10.9034ZM22.0793 16.9926L21.5793 16.9929L22.0793 16.9926ZM22.0632 21.0502L21.5632 21.0471V21.0471L22.0632 21.0502ZM22.0205 21.6939L22.5146 21.7706L22.5147 21.7704L22.0205 21.6939ZM19.7736 25.1868L20.034 25.6136L20.0341 25.6136L19.7736 25.1868ZM14.9574 25.2324L15.2075 24.7995L15.2075 24.7995L14.9574 25.2324ZM12.8833 22.6375L12.4092 22.7964L12.4094 22.7969L12.8833 22.6375ZM12.6709 21.7582L12.1804 21.8549L12.6709 21.7582ZM12.5843 21.3386L12.5055 20.8449L11.9797 20.9288L12.0965 21.4483L12.5843 21.3386ZM12.8935 21.2904L12.9694 21.7846H12.9694L12.8935 21.2904ZM13.4615 21.1974L13.3706 20.7057L13.3705 20.7058L13.4615 21.1974ZM15.2322 20.6419L15.475 21.079L15.4751 21.0789L15.2322 20.6419ZM15.7583 19.7615L16.2579 19.7403L16.2578 19.7399L15.7583 19.7615ZM15.749 18.7607L16.249 18.7646V18.7646L15.749 18.7607ZM15.7489 18.0774L16.2488 18.0694L16.2488 18.0685L15.7489 18.0774ZM15.928 17.7821L16.1565 18.2268L16.1568 18.2266L15.928 17.7821ZM18.7864 14.0894L18.2988 13.9786L18.2988 13.9786L18.7864 14.0894ZM15.9437 8.05184L15.7221 8.50003L15.7228 8.50036L15.9437 8.05184ZM15.7489 7.72332L15.2489 7.71862L15.2489 7.71929L15.7489 7.72332ZM15.7495 6.6373L16.2495 6.63539V6.63539L15.7495 6.6373ZM15.7597 5.001L15.2598 4.98763L15.2598 4.98788L15.7597 5.001ZM15.2057 4.09525L15.3985 3.63394L15.3984 3.6339L15.2057 4.09525ZM15.1237 4.06095L15.3169 3.59978L15.3169 3.59978L15.1237 4.06095ZM13.8077 3.62692L13.7294 4.12075L13.7296 4.12078L13.8077 3.62692ZM10.5592 3.24349L10.5269 3.74245L10.527 3.74245L10.5592 3.24349ZM3.4215 3.52495L3.50092 4.0186L3.50106 4.01858L3.4215 3.52495ZM1.55796 4.08279L1.32258 3.64166L1.32242 3.64175L1.55796 4.08279ZM1.01026 5.03791L1.50586 4.97176L1.50581 4.97139L1.01026 5.03791ZM1.01266 5.29234L0.513315 5.26684V5.26684L1.01266 5.29234ZM1.00801 5.42872L1.50801 5.42877V5.42872H1.00801ZM1.00806 8.52667L1.50806 8.52663L1.00806 8.52667ZM1.00083 19.7564L1.50083 19.758L1.50083 19.7575L1.00083 19.7564ZM1.52519 20.6336L1.72567 20.1755L1.72511 20.1753L1.52519 20.6336ZM2.8325 21.0987L2.72825 21.5877L2.72841 21.5877L2.8325 21.0987ZM9.33132 21.5587L9.33947 22.0586H9.33952L9.33132 21.5587ZM5.2186 6.28649L4.86008 5.93797L4.7186 6.08351V6.28649H5.2186ZM5.21905 6.28602L5.26153 5.78783L5.02559 5.76771L4.86053 5.93751L5.21905 6.28602ZM9.9926 6.38707L10.0189 6.88638L10.0189 6.88638L9.9926 6.38707ZM14.68 5.74248H15.18V5.06349L14.5316 5.26501L14.68 5.74248ZM14.68 7.58489L14.6001 8.07848L15.18 8.17226V7.58489H14.68ZM9.69271 9.34056L10.069 9.66985L10.069 9.66981L9.69271 9.34056ZM8.39214 13.3608L8.8911 13.3286L8.89109 13.3285L8.39214 13.3608ZM14.6723 18.2389L15.1695 18.1859L15.1125 17.65L14.5823 17.747L14.6723 18.2389ZM14.6792 18.294L15.1748 18.2278L14.6792 18.294ZM14.6898 18.4133H14.1898L14.1898 18.416L14.6898 18.4133ZM14.6908 19.1571L14.1908 19.1568V19.1568L14.6908 19.1571ZM14.6907 19.4053H14.1907L14.1907 19.4054L14.6907 19.4053ZM14.6907 19.4215L14.1907 19.4216L14.1907 19.4216L14.6907 19.4215ZM14.3217 19.8912L14.4071 20.3838L14.4073 20.3838L14.3217 19.8912ZM14.1149 19.9271L14.0293 19.4344H14.0293L14.1149 19.9271ZM11.3107 20.3521L11.2572 19.855L11.2571 19.855L11.3107 20.3521ZM6.96362 20.4587L6.98839 19.9593L6.98829 19.9593L6.96362 20.4587ZM6.10432 20.4051L6.13866 19.9063L6.10432 20.4051ZM5.39638 20.3595L5.36827 20.8587L5.36861 20.8587L5.39638 20.3595ZM5.21591 20.1657L4.71592 20.1623L4.71592 20.1625L5.21591 20.1657ZM5.22008 18.0763L5.72008 18.0761V18.0761L5.22008 18.0763ZM5.21905 17.136L5.71905 17.1345V17.1345L5.21905 17.136ZM5.21838 11.6347L5.71838 11.6347L5.21838 11.6347ZM17.8495 12.9229L17.3495 12.9192V12.9229H17.8495ZM13.6981 8.58662L13.6903 9.08655L13.6904 9.08656L13.6981 8.58662ZM17.8495 12.9234L18.3495 12.9271V12.9234H17.8495ZM13.5644 17.2353L13.5601 17.7353H13.5602L13.5644 17.2353ZM9.44041 12.8334L8.94043 12.8284L8.94043 12.8284L9.44041 12.8334ZM19.9729 5.01484L19.473 5.00185L19.473 5.00997L19.9729 5.01484ZM20.6118 7.76531L21.0613 7.5463L21.0612 7.54621L20.6118 7.76531ZM20.9341 2.7973L20.5803 2.44401L20.5802 2.44411L20.9341 2.7973ZM24.4834 3.07046L24.885 2.77265L24.8849 2.77247L24.4834 3.07046ZM25.1429 6.06916L24.6521 5.97377L24.6521 5.97387L25.1429 6.06916ZM23.9546 8.76979L23.5594 8.46346L23.5591 8.46386L23.9546 8.76979ZM23.2919 9.41623L23.5897 9.81786L23.5898 9.81783L23.2919 9.41623ZM21.8001 9.35855L21.4905 9.75115L21.4905 9.75115L21.8001 9.35855ZM4.16629 20.2566L4.06264 20.7457L4.66629 20.8737V20.2566H4.16629ZM4.16629 6.21497H4.66629V5.80912L4.26911 5.72565L4.16629 6.21497ZM2.07155 19.8127H1.57155V20.2179L1.9679 20.3019L2.07155 19.8127ZM2.07155 5.77524L2.17408 5.28587L1.57155 5.15963V5.77524H2.07155ZM2.72879 4.79475L2.63695 4.30325L2.63638 5.28613L2.72879 4.79475ZM14.0182 4.79475L14.1111 5.28605L14.1106 4.30335L14.0182 4.79475ZM14.3788 12.3716V11.8716H13.8788L13.8788 12.3716L14.3788 12.3716ZM14.3793 12.5093L14.8793 12.5064V12.5064L14.3793 12.5093ZM14.3806 12.3716V12.8716H14.8806V12.3716H14.3806ZM14.381 12.1337L13.881 12.1323V12.1323L14.381 12.1337ZM14.3801 11.6112L14.8801 11.6058L14.8801 11.6056L14.3801 11.6112ZM13.8499 10.9984L13.8468 11.4984L13.847 11.4984L13.8499 10.9984ZM13.3121 11.6107L13.8121 11.613L13.8121 11.6127L13.3121 11.6107ZM13.3118 11.6731L13.8118 11.6754V11.6754L13.3118 11.6731ZM13.3148 13.108L13.8148 13.1006L13.8147 13.1003L13.3148 13.108ZM13.1559 13.4568L12.8425 13.0672L12.842 13.0676L13.1559 13.4568ZM13.0414 14.955L12.6554 15.2728L12.6556 15.2731L13.0414 14.955ZM14.5476 15.0542L14.2157 14.6802L14.2155 14.6804L14.5476 15.0542ZM14.6428 13.5772L14.9782 13.2064L14.9781 13.2063L14.6428 13.5772ZM14.3783 12.809L14.8782 12.8198L14.8782 12.8198L14.3783 12.809ZM11.5219 20.9619C11.2808 20.9728 11.0423 20.9855 10.8075 20.9979L10.8605 21.9965C11.0959 21.984 11.3306 21.9716 11.5672 21.9608L11.5219 20.9619ZM12.0198 21.6167L12.0203 21.6153L11.0689 21.3074L11.0684 21.3087L12.0198 21.6167ZM12.0495 21.4494C12.0452 21.4256 12.0412 21.4037 12.0372 21.38L11.051 21.5454C11.0563 21.5769 11.0615 21.6052 11.0657 21.6284L12.0495 21.4494ZM12.0742 21.6067C12.0676 21.5473 12.0571 21.4909 12.0495 21.4494L11.0657 21.6285C11.0745 21.6769 11.0783 21.6989 11.0805 21.7183L12.0742 21.6067ZM14.3091 25.5016C13.002 24.5646 12.2574 23.2624 12.0743 21.6075L11.0804 21.7175C11.2932 23.6413 12.1783 25.2045 13.7265 26.3143L14.3091 25.5016ZM19.0665 26.1778C17.3664 26.7661 15.7745 26.5527 14.3092 25.5017L13.7264 26.3142C15.462 27.5592 17.3943 27.8146 19.3934 27.1229L19.0665 26.1778ZM22.6151 21.1282C22.592 23.4122 21.151 25.4567 19.0665 26.1778L19.3934 27.1229C21.8943 26.2577 23.5878 23.8265 23.615 21.1383L22.6151 21.1282ZM22.6202 18.7944C22.6217 19.5748 22.6231 20.3517 22.6151 21.1281L23.615 21.1385C23.6231 20.355 23.6217 19.572 23.6202 18.7925L22.6202 18.7944ZM22.6191 17.8803C22.6191 18.1853 22.6197 18.4901 22.6202 18.7944L23.6202 18.7925C23.6197 18.4881 23.6191 18.1842 23.6191 17.8803H22.6191ZM22.6192 13.2349C22.6193 14.7834 22.6194 16.3318 22.6191 17.8802L23.6191 17.8804C23.6194 16.3319 23.6193 14.7833 23.6192 13.2348L22.6192 13.2349ZM22.6191 10.9121C22.6191 11.6864 22.6191 12.4606 22.6192 13.2349L23.6192 13.2348C23.6191 12.4606 23.6191 11.6863 23.6191 10.9121H22.6191ZM22.6191 10.6833V10.9121H23.6191V10.6833H22.6191ZM24.3292 9.2109C23.9471 9.68963 23.5149 10.0314 22.9665 10.2071L23.2717 11.1594C24.0539 10.9088 24.6399 10.4246 25.1108 9.83474L24.3292 9.2109ZM25.5617 6.72004C25.3043 7.64554 24.9108 8.48173 24.3291 9.21105L25.1109 9.83458C25.7907 8.98219 26.2385 8.01888 26.5252 6.988L25.5617 6.72004ZM24.9466 2.73284C25.8249 3.92347 25.9694 5.25349 25.5617 6.72012L26.5252 6.98792C26.9984 5.28558 26.8465 3.62382 25.7513 2.1392L24.9466 2.73284ZM20.7451 2.19963C22.0235 1.10359 23.8943 1.30631 24.9466 2.73283L25.7513 2.1392C24.3632 0.257419 21.8254 -0.0437262 20.0942 1.44044L20.7451 2.19963ZM19.4287 5.67104C19.3082 4.27008 19.7165 3.08143 20.7451 2.19963L20.0942 1.44044C18.7838 2.56393 18.2888 4.08745 18.4323 5.75671L19.4287 5.67104ZM20.8007 9.14199C20.0236 8.1063 19.5391 6.95112 19.4287 5.67091L18.4324 5.75684C18.5608 7.24601 19.1258 8.57599 20.0008 9.74215L20.8007 9.14199ZM22.0446 10.1419C21.5541 9.96036 21.153 9.61142 20.8007 9.14194L20.0009 9.7422C20.427 10.31 20.9713 10.8109 21.6975 11.0797L22.0446 10.1419ZM22.5663 10.9034C22.5663 10.8061 22.5605 10.627 22.4539 10.4559C22.3403 10.2736 22.1705 10.1885 22.0446 10.1419L21.6975 11.0797C21.7337 11.0931 21.6615 11.0751 21.6051 10.9846C21.5793 10.9433 21.5702 10.9075 21.5671 10.8913C21.5647 10.8785 21.5663 10.8783 21.5663 10.9034H22.5663ZM22.5728 13.9465C22.5699 12.9316 22.567 11.9172 22.5663 10.903L21.5663 10.9037C21.567 11.9192 21.5699 12.9346 21.5728 13.9494L22.5728 13.9465ZM22.5793 16.9923C22.5787 15.9767 22.5758 14.9613 22.5728 13.9465L21.5728 13.9494C21.5758 14.9644 21.5787 15.9787 21.5793 16.9929L22.5793 16.9923ZM22.5632 21.0534C22.5717 19.7013 22.5802 18.3471 22.5793 16.9923L21.5793 16.9929C21.5802 18.3437 21.5717 19.6944 21.5632 21.0471L22.5632 21.0534ZM22.5147 21.7704C22.553 21.5226 22.5618 21.2768 22.5632 21.0534L21.5632 21.0471C21.5619 21.2527 21.5536 21.4416 21.5264 21.6174L22.5147 21.7704ZM20.0341 25.6136C21.4592 24.7438 22.2599 23.4107 22.5146 21.7706L21.5265 21.6172C21.3115 23.0012 20.6586 24.0609 19.5131 24.76L20.0341 25.6136ZM14.7073 25.6654C16.4666 26.6819 18.2899 26.6777 20.034 25.6136L19.5132 24.7599C18.0869 25.6301 16.6554 25.636 15.2075 24.7995L14.7073 25.6654ZM12.4094 22.7969C12.8222 24.0243 13.5847 25.0168 14.7073 25.6654L15.2075 24.7995C14.3144 24.2835 13.6995 23.4959 13.3572 22.4781L12.4094 22.7969ZM12.1804 21.8549C12.2385 22.1497 12.3024 22.4777 12.4092 22.7964L13.3574 22.4786C13.2746 22.2315 13.2219 21.9677 13.1615 21.6615L12.1804 21.8549ZM12.0965 21.4483C12.1263 21.5811 12.1527 21.7148 12.1804 21.8549L13.1615 21.6615C13.1343 21.5234 13.1054 21.3768 13.0721 21.229L12.0965 21.4483ZM12.8176 20.7962C12.7197 20.8113 12.6158 20.8272 12.5055 20.8449L12.6632 21.8323C12.7702 21.8153 12.8712 21.7997 12.9694 21.7846L12.8176 20.7962ZM13.3705 20.7058C13.1966 20.738 13.0208 20.765 12.8176 20.7962L12.9694 21.7846C13.1697 21.7539 13.361 21.7245 13.5526 21.6891L13.3705 20.7058ZM14.9893 20.2048C14.5124 20.4697 13.978 20.5935 13.3706 20.7057L13.5524 21.6891C14.168 21.5753 14.8439 21.4295 15.475 21.079L14.9893 20.2048ZM15.2588 19.7827C15.2642 19.9117 15.2372 19.9795 15.2092 20.0232C15.177 20.0734 15.1152 20.1349 14.9892 20.2048L15.4751 21.0789C15.6903 20.9592 15.9008 20.7971 16.051 20.5629C16.2054 20.3221 16.2708 20.0446 16.2579 19.7403L15.2588 19.7827ZM15.249 18.7569C15.2465 19.0886 15.2437 19.435 15.2588 19.7831L16.2578 19.7399C16.2441 19.4215 16.2464 19.1005 16.249 18.7646L15.249 18.7569ZM15.2489 18.0854C15.2525 18.3062 15.2508 18.5281 15.249 18.7569L16.249 18.7646C16.2508 18.5378 16.2526 18.304 16.2488 18.0694L15.2489 18.0854ZM15.6995 17.3373C15.5938 17.3916 15.4581 17.4799 15.3619 17.6359C15.2644 17.7941 15.2467 17.9581 15.249 18.0862L16.2488 18.0685C16.2484 18.0443 16.2538 18.0948 16.2133 18.1605C16.1741 18.2241 16.1293 18.2408 16.1565 18.2268L15.6995 17.3373ZM18.2988 13.9786C17.9492 15.5175 17.0757 16.6291 15.6992 17.3375L16.1568 18.2266C17.7945 17.3838 18.8586 16.0286 19.274 14.2002L18.2988 13.9786ZM15.7228 8.50036C17.6955 9.47226 18.7977 11.783 18.2988 13.9786L19.274 14.2002C19.874 11.5593 18.5583 8.78252 16.1647 7.60332L15.7228 8.50036ZM15.2489 7.71929C15.248 7.83603 15.2592 8.00431 15.3535 8.16948C15.4514 8.34088 15.5975 8.43844 15.7221 8.50003L16.1654 7.60365C16.135 7.58864 16.183 7.60545 16.2219 7.6735C16.2572 7.73532 16.2485 7.77763 16.2489 7.72735L15.2489 7.71929ZM15.2495 6.63921C15.2509 7.00176 15.2523 7.3605 15.2489 7.71862L16.2489 7.72802C16.2523 7.36219 16.2509 6.99684 16.2495 6.63539L15.2495 6.63921ZM15.2598 4.98788C15.2453 5.54171 15.2474 6.0948 15.2495 6.63921L16.2495 6.63539C16.2474 6.08847 16.2454 5.55042 16.2595 5.01411L15.2598 4.98788ZM15.0128 4.55656C15.121 4.60177 15.1731 4.65346 15.2024 4.70055C15.2329 4.74968 15.2639 4.83511 15.2598 4.98763L16.2595 5.01437C16.2675 4.71378 16.208 4.42431 16.0518 4.17283C15.8943 3.91931 15.6634 3.74468 15.3985 3.63394L15.0128 4.55656ZM14.9305 4.52211C14.9578 4.53356 14.9854 4.54509 15.0129 4.5566L15.3984 3.6339C15.3714 3.62261 15.3443 3.61126 15.3169 3.59978L14.9305 4.52211ZM13.7296 4.12078C14.1094 4.18084 14.4915 4.33819 14.9305 4.52211L15.3169 3.59978C14.9001 3.42515 14.4056 3.21524 13.8858 3.13305L13.7296 4.12078ZM10.527 3.74245C11.5925 3.8112 12.6608 3.9513 13.7294 4.12075L13.886 3.13309C12.8014 2.96109 11.6996 2.81604 10.5914 2.74452L10.527 3.74245ZM3.50106 4.01858C5.82403 3.6442 8.16939 3.59018 10.5269 3.74245L10.5914 2.74453C8.17672 2.58857 5.75437 2.64252 3.34195 3.03132L3.50106 4.01858ZM1.79335 4.52392C2.30397 4.25146 2.87314 4.1196 3.50092 4.0186L3.34208 3.03129C2.68501 3.13701 1.98279 3.28938 1.32258 3.64166L1.79335 4.52392ZM1.50581 4.97139C1.48778 4.83707 1.51407 4.76961 1.54156 4.72609C1.57616 4.67129 1.64762 4.60174 1.79351 4.52383L1.32242 3.64175C1.09075 3.76547 0.856708 3.93771 0.696024 4.19217C0.528218 4.4579 0.469434 4.76718 0.514704 5.10443L1.50581 4.97139ZM1.51201 5.31784C1.51595 5.24068 1.52414 5.10866 1.50586 4.97176L0.514655 5.10406C0.518656 5.13404 0.518116 5.17285 0.513315 5.26684L1.51201 5.31784ZM1.50801 5.42872C1.50801 5.3983 1.50958 5.36553 1.51201 5.31784L0.513315 5.26684C0.511103 5.31016 0.508015 5.36849 0.508015 5.42872H1.50801ZM1.50806 8.52663C1.50799 7.49399 1.50792 6.46139 1.50801 5.42877L0.508015 5.42868C0.507918 6.46139 0.507988 7.49408 0.508059 8.5267L1.50806 8.52663ZM1.50083 19.7575C1.50857 16.0135 1.50832 12.2698 1.50806 8.52663L0.508059 8.5267C0.508316 12.2701 0.508573 16.0126 0.500833 19.7554L1.50083 19.7575ZM1.72511 20.1753C1.62983 20.1337 1.58517 20.087 1.55886 20.0427C1.52975 19.9936 1.50036 19.9081 1.50083 19.758L0.500834 19.7549C0.499958 20.0343 0.554514 20.3096 0.698809 20.5529C0.845897 20.8008 1.0641 20.9779 1.32527 21.0919L1.72511 20.1753ZM2.93674 20.6097C2.5448 20.5261 2.15251 20.3623 1.72567 20.1755L1.32471 21.0916C1.74547 21.2758 2.22411 21.4802 2.72825 21.5877L2.93674 20.6097ZM9.32316 21.0588C7.15133 21.0942 5.02254 21.0536 2.93658 20.6096L2.72841 21.5877C4.9307 22.0564 7.15391 22.0943 9.33947 22.0586L9.32316 21.0588ZM10.8075 20.9979C10.3005 21.0248 9.81125 21.0508 9.32311 21.0588L9.33952 22.0586C9.84905 22.0503 10.3566 22.0233 10.8605 21.9965L10.8075 20.9979ZM4.7186 6.28649V6.58271H5.7186V6.28649H4.7186ZM4.86053 5.93751L4.86008 5.93797L5.57712 6.635L5.57757 6.63454L4.86053 5.93751ZM9.96627 5.88777C8.41035 5.96983 6.85087 5.92335 5.26153 5.78783L5.17657 6.78422C6.80162 6.92278 8.40805 6.97134 10.0189 6.88638L9.96627 5.88777ZM14.5316 5.26501C13.0628 5.7215 11.55 5.8042 9.96626 5.88777L10.0189 6.88638C11.5832 6.80384 13.221 6.7195 14.8284 6.21995L14.5316 5.26501ZM15.18 7.58489V5.74248H14.18V7.58489H15.18ZM10.069 9.66981C11.2803 8.28548 12.7894 7.78562 14.6001 8.07848L14.7598 7.09131C12.6279 6.7465 10.7673 7.3531 9.31642 9.01131L10.069 9.66981ZM8.89109 13.3285C8.79993 11.9218 9.17274 10.6939 10.069 9.66985L9.31646 9.01126C8.22748 10.2555 7.78682 11.7518 7.89319 13.3932L8.89109 13.3285ZM14.5823 17.747C11.4007 18.3294 9.05245 15.8266 8.8911 13.3286L7.89318 13.3931C8.08649 16.3858 10.8957 19.4384 14.7624 18.7307L14.5823 17.747ZM15.1748 18.2278C15.1722 18.2084 15.1707 18.1967 15.1695 18.1859L14.1751 18.2918C14.1779 18.318 14.1813 18.343 14.1836 18.3602L15.1748 18.2278ZM15.1898 18.4133C15.1898 18.3348 15.1794 18.262 15.1748 18.2278L14.1836 18.3602C14.1865 18.3817 14.188 18.3934 14.189 18.4037C14.19 18.4131 14.1898 18.4153 14.1898 18.4133H15.1898ZM15.1908 19.1575C15.191 18.9098 15.1912 18.6604 15.1898 18.4106L14.1898 18.416C14.1912 18.6623 14.191 18.9086 14.1908 19.1568L15.1908 19.1575ZM15.1907 19.4053C15.1907 19.3228 15.1908 19.2402 15.1908 19.1575L14.1908 19.1568C14.1908 19.2395 14.1907 19.3224 14.1907 19.4053H15.1907ZM15.1907 19.4215L15.1907 19.4052L14.1907 19.4054L14.1907 19.4216L15.1907 19.4215ZM14.4073 20.3838C14.4972 20.3682 14.6038 20.3484 14.6988 20.3155C14.8014 20.2799 14.9416 20.2123 15.0479 20.0674C15.1488 19.9298 15.1733 19.7833 15.1824 19.6935C15.1914 19.6058 15.1908 19.5041 15.1907 19.4214L14.1907 19.4216C14.1907 19.4695 14.1907 19.5054 14.1901 19.5361C14.1895 19.5669 14.1885 19.5835 14.1876 19.592C14.1867 19.6008 14.187 19.5908 14.1931 19.5707C14.1999 19.5485 14.2139 19.5136 14.2414 19.4761C14.2549 19.4578 14.2698 19.4412 14.2856 19.4266C14.3012 19.4121 14.3163 19.4009 14.3294 19.3924C14.3424 19.3841 14.3531 19.3786 14.3601 19.3753C14.3671 19.3721 14.3712 19.3706 14.3714 19.3706C14.3716 19.3705 14.369 19.3714 14.3627 19.3731C14.3565 19.3748 14.3478 19.3769 14.3359 19.3795C14.3115 19.3849 14.2796 19.391 14.2361 19.3985L14.4073 20.3838ZM14.2005 20.4197C14.2695 20.4077 14.3383 20.3957 14.4071 20.3838L14.2363 19.3985C14.1673 19.4105 14.0983 19.4225 14.0293 19.4344L14.2005 20.4197ZM11.3641 20.8492C12.3218 20.7463 13.2713 20.5811 14.2005 20.4197L14.0293 19.4344C13.0947 19.5968 12.1773 19.756 11.2572 19.855L11.3641 20.8492ZM6.93885 20.9581C8.41186 21.0311 9.89029 21.008 11.3642 20.8492L11.2571 19.855C9.84351 20.0072 8.41821 20.0302 6.98839 19.9593L6.93885 20.9581ZM6.06998 20.9039C6.35545 20.9236 6.64659 20.9436 6.93895 20.9581L6.98829 19.9593C6.70722 19.9454 6.42574 19.9261 6.13866 19.9063L6.06998 20.9039ZM5.36861 20.8587C5.60087 20.8716 5.83349 20.8877 6.06998 20.9039L6.13866 19.9063C5.90328 19.8901 5.66408 19.8736 5.42415 19.8603L5.36861 20.8587ZM4.71592 20.1625C4.71522 20.2714 4.7289 20.4855 4.8966 20.6595C5.06188 20.8311 5.27169 20.8533 5.36827 20.8587L5.42449 19.8603C5.38998 19.8583 5.50911 19.854 5.61669 19.9657C5.72671 20.0798 5.71569 20.2007 5.7159 20.1689L4.71592 20.1625ZM4.72008 18.0765C4.72035 18.7734 4.72063 19.4682 4.71592 20.1623L5.71589 20.1691C5.72063 19.4708 5.72035 18.7724 5.72008 18.0761L4.72008 18.0765ZM4.71995 17.5846C4.71995 17.7486 4.72001 17.9126 4.72008 18.0765L5.72008 18.0761C5.72001 17.9122 5.71995 17.7484 5.71995 17.5846H4.71995ZM4.71905 17.1375C4.7195 17.2872 4.71995 17.436 4.71995 17.5846H5.71995C5.71995 17.4343 5.7195 17.284 5.71905 17.1345L4.71905 17.1375ZM4.71815 16.6867C4.71815 16.8373 4.7186 16.9879 4.71905 17.1375L5.71905 17.1345C5.7186 16.9846 5.71815 16.8356 5.71815 16.6867H4.71815ZM4.71838 11.6347C4.71826 13.3187 4.71815 15.0027 4.71815 16.6867H5.71815C5.71815 15.0028 5.71826 13.3188 5.71838 11.6347L4.71838 11.6347ZM4.7186 6.58271C4.7186 8.26661 4.71849 9.95062 4.71838 11.6347L5.71838 11.6347C5.71849 9.9507 5.7186 8.26665 5.7186 6.58271H4.7186ZM18.3494 12.9267C18.3689 10.3057 16.2803 8.12659 13.7059 8.08668L13.6904 9.08656C15.6987 9.11769 17.365 10.8302 17.3495 12.9192L18.3494 12.9267ZM18.3495 12.9234V12.9229H17.3495V12.9234H18.3495ZM13.5602 17.7353C16.2244 17.7575 18.3295 15.6233 18.3494 12.9271L17.3495 12.9197C17.3335 15.0841 15.6595 16.7528 13.5685 16.7353L13.5602 17.7353ZM8.94043 12.8284C8.91363 15.4943 10.9655 17.7134 13.5601 17.7353L13.5686 16.7353C11.5697 16.7184 9.9187 14.9952 9.94038 12.8385L8.94043 12.8284ZM13.706 8.08668C11.1548 8.04671 8.96743 10.1698 8.94043 12.8284L9.94038 12.8385C9.96187 10.7224 11.7054 9.05546 13.6903 9.08655L13.706 8.08668ZM19.473 5.00997C19.4623 6.10912 19.6976 7.03114 20.1623 7.9844L21.0612 7.54621C20.6577 6.71843 20.4639 5.94891 20.4729 5.01971L19.473 5.00997ZM20.5802 2.44411C19.7947 3.23127 19.4934 4.22032 19.4731 5.00185L20.4728 5.02783C20.4875 4.46204 20.7097 3.73003 21.288 3.15049L20.5802 2.44411ZM24.8849 2.77247C23.8291 1.34993 21.834 1.1885 20.5803 2.44401L21.2879 3.15059C22.1039 2.33345 23.385 2.42949 24.0819 3.36844L24.8849 2.77247ZM25.6337 6.16455C25.8729 4.93402 25.6371 3.78688 24.885 2.77265L24.0818 3.36827C24.6586 4.14615 24.8403 5.00522 24.6521 5.97377L25.6337 6.16455ZM24.3497 9.07613C25.0202 8.21125 25.4279 7.22443 25.6337 6.16445L24.6521 5.97387C24.4718 6.90257 24.1208 7.73925 23.5594 8.46346L24.3497 9.07613ZM23.5898 9.81783C23.8697 9.61022 24.1325 9.35697 24.35 9.07573L23.5591 8.46386C23.4004 8.66894 23.2044 8.85865 22.9941 9.01463L23.5898 9.81783ZM21.4905 9.75115C21.7911 9.98826 22.14 10.1422 22.5171 10.161C22.8986 10.18 23.2655 10.0583 23.5897 9.81786L22.9941 9.0146C22.8349 9.13268 22.6922 9.16851 22.5669 9.16226C22.4371 9.1558 22.2818 9.10167 22.1097 8.96595L21.4905 9.75115ZM20.1623 7.98431C20.4725 8.62103 20.8683 9.26045 21.4905 9.75115L22.1097 8.96596C21.659 8.61043 21.3436 8.12585 21.0613 7.5463L20.1623 7.98431ZM4.66629 20.2566V6.21497H3.66629V20.2566H4.66629ZM1.9679 20.3019L4.06264 20.7457L4.26994 19.7675L2.1752 19.3236L1.9679 20.3019ZM1.57155 5.77524V19.8127H2.57155V5.77524H1.57155ZM4.26911 5.72565C3.56428 5.57754 2.87234 5.43217 2.17408 5.28587L1.96901 6.26462C2.66695 6.41085 3.35863 6.55617 4.06347 6.70428L4.26911 5.72565ZM2.63638 5.28613C6.46061 6.00537 10.2864 6.00873 14.1111 5.28605L13.9254 4.30344C10.224 5.00283 6.52386 4.99973 2.82121 4.30336L2.63638 5.28613ZM14.1106 4.30335C10.2857 3.58447 6.46029 3.58879 2.63695 4.30325L2.82064 5.28624C6.52329 4.59433 10.2238 4.59034 13.9259 5.28614L14.1106 4.30335ZM13.8788 12.3716C13.8788 12.4191 13.8791 12.4665 13.8793 12.5122L14.8793 12.5064C14.8791 12.4602 14.8788 12.4157 14.8788 12.3715L13.8788 12.3716ZM14.3806 11.8716H14.3788V12.8716H14.3806V11.8716ZM13.881 12.1323C13.8808 12.2114 13.8806 12.2914 13.8806 12.3716H14.8806C14.8806 12.293 14.8808 12.2144 14.881 12.1351L13.881 12.1323ZM13.8802 11.6165C13.882 11.7867 13.8815 11.9575 13.881 12.1323L14.881 12.1351C14.8815 11.9614 14.882 11.7839 14.8801 11.6058L13.8802 11.6165ZM13.847 11.4984C13.8574 11.4985 13.8589 11.5003 13.8556 11.4988C13.8522 11.4972 13.8509 11.4955 13.8521 11.4969C13.8543 11.4994 13.8792 11.5312 13.8802 11.6167L14.8801 11.6056C14.877 11.328 14.792 11.0544 14.6076 10.8418C14.4185 10.6236 14.1496 10.5002 13.8529 10.4984L13.847 11.4984ZM13.8121 11.6127C13.8123 11.561 13.831 11.525 13.8468 11.507C13.8622 11.4896 13.8641 11.4985 13.8468 11.4984L13.8531 10.4984C13.222 10.4944 12.8143 11.0582 12.8121 11.6087L13.8121 11.6127ZM13.8118 11.6754L13.8121 11.613L12.8121 11.6084L12.8118 11.6709L13.8118 11.6754ZM13.8147 13.1003C13.8075 12.6281 13.8097 12.1547 13.8118 11.6754L12.8118 11.6709C12.8097 12.1485 12.8075 12.6319 12.8149 13.1156L13.8147 13.1003ZM13.4693 13.8464C13.5756 13.7609 13.6733 13.6514 13.7379 13.5063C13.8015 13.3636 13.8166 13.2228 13.8148 13.1006L12.8149 13.1154C12.8153 13.1445 12.8109 13.1299 12.8243 13.0997C12.8307 13.0853 12.8382 13.0741 12.844 13.0671C12.8491 13.0607 12.8503 13.0609 12.8425 13.0672L13.4693 13.8464ZM13.4274 14.6372C13.2091 14.3721 13.2604 14.0149 13.4698 13.846L12.842 13.0676C12.1589 13.6185 12.1177 14.6197 12.6554 15.2728L13.4274 14.6372ZM14.2155 14.6804C13.966 14.902 13.6165 14.8665 13.4272 14.6369L12.6556 15.2731C13.2196 15.9571 14.2232 16.0111 14.8796 15.428L14.2155 14.6804ZM14.3073 13.948C14.3706 14.0053 14.4208 14.1143 14.4079 14.2741C14.395 14.4349 14.3204 14.5873 14.2157 14.6802L14.8795 15.4282C15.1959 15.1473 15.3732 14.7461 15.4047 14.3542C15.4363 13.9614 15.3234 13.5188 14.9782 13.2064L14.3073 13.948ZM13.8785 12.7982C13.8753 12.9419 13.8726 13.1409 13.9278 13.3445C13.9882 13.5667 14.1087 13.7685 14.3075 13.9481L14.9781 13.2063C14.916 13.1502 14.9012 13.1129 14.8929 13.0825C14.8796 13.0335 14.8751 12.9663 14.8782 12.8198L13.8785 12.7982ZM13.8793 12.5122C13.8799 12.6133 13.8804 12.7064 13.8785 12.7982L14.8782 12.8198C14.8805 12.712 14.8799 12.6051 14.8793 12.5064L13.8793 12.5122Z" fill="#FF7943"/>
</svg>
