<svg width="21" height="24" viewBox="0 0 21 24" fill="none" xmlns="http://www.w3.org/2000/svg">
<path d="M11.8415 3.11173H8.39567C7.53839 3.11173 6.83789 2.41467 6.83789 1.5542C6.83789 0.693719 7.53505 0 8.39567 0H11.8415C12.6987 0 13.3992 0.697054 13.3992 1.55753C13.3992 2.41801 12.6987 3.11173 11.8415 3.11173ZM8.39567 1.00056C8.08878 1.00056 7.8386 1.25069 7.8386 1.55753C7.8386 1.86437 8.08878 2.11451 8.39567 2.11451H11.8415C12.1483 2.11451 12.3985 1.86437 12.3985 1.55753C12.3985 1.25069 12.1483 1.00056 11.8415 1.00056H8.39567Z" fill="#FF7943"/>
<path d="M10.6745 2.8349H9.67383V4.11228H10.6745V2.8349Z" fill="#FF7943"/>
<path d="M16.9121 7.37744L14.5771 5.66982L17.3324 1.90106L19.6674 3.60868L16.9121 7.37744ZM15.9781 5.45637L16.6953 5.97999L18.2698 3.82546L17.5526 3.30184L15.9781 5.45637Z" fill="#FF7943"/>
<path d="M10.1739 24C4.56325 24 0 19.4375 0 13.8277C0 8.2179 4.56325 3.65536 10.1739 3.65536C15.7846 3.65536 20.3478 8.2179 20.3478 13.8277C20.3478 19.4375 15.7846 24 10.1739 24ZM10.1739 4.65592C5.11698 4.65592 1.00071 8.76821 1.00071 13.8277C1.00071 18.8872 5.11698 22.9994 10.1739 22.9994C15.2308 22.9994 19.3471 18.8838 19.3471 13.8277C19.3471 8.77154 15.2308 4.65592 10.1739 4.65592Z" fill="#FF7943"/>
<path d="M10.6472 4.4458H9.64648V5.58643H10.6472V4.4458Z" fill="#FF7943"/>
<path d="M10.6472 22.1523H9.64648V23.2929H10.6472V22.1523Z" fill="#FF7943"/>
<path d="M1.89179 13.3274H0.750977V14.3279H1.89179V13.3274Z" fill="#FF7943"/>
<path d="M19.5978 13.3274H18.457V14.3279H19.5978V13.3274Z" fill="#FF7943"/>
<path d="M10.2305 15.3686C9.20307 15.3686 8.36914 14.5348 8.36914 13.5075C8.36914 12.4803 9.20307 11.6465 10.2305 11.6465C11.2579 11.6465 12.0918 12.4803 12.0918 13.5075C12.0918 14.5348 11.2579 15.3686 10.2305 15.3686ZM10.2305 12.647C9.7568 12.647 9.36985 13.0339 9.36985 13.5075C9.36985 13.9811 9.7568 14.368 10.2305 14.368C10.7041 14.368 11.0911 13.9811 11.0911 13.5075C11.0911 13.0339 10.7041 12.647 10.2305 12.647Z" fill="#FF7943"/>
<path d="M8.90554 14.0563L3.76367 17.3085L4.29865 18.1541L9.44052 14.9019L8.90554 14.0563Z" fill="#FF7943"/>
</svg>
