<svg width="14" height="16" viewBox="0 0 14 16" fill="none" xmlns="http://www.w3.org/2000/svg">
<path d="M11.5078 11.2995L7 15.8074L2.49217 11.2995C1.60062 10.408 0.993465 9.27205 0.747491 8.03542C0.501517 6.79879 0.627767 5.517 1.11028 4.35212C1.59279 3.18725 2.40989 2.19161 3.45825 1.49112C4.50661 0.790633 5.73915 0.416748 7 0.416748C8.26086 0.416748 9.49339 0.790633 10.5418 1.49112C11.5901 2.19161 12.4072 3.18725 12.8897 4.35212C13.3722 5.517 13.4985 6.79879 13.2525 8.03542C13.0065 9.27205 12.3994 10.408 11.5078 11.2995ZM7 8.20836C7.37573 8.20836 7.73606 8.0591 8.00174 7.79343C8.26741 7.52775 8.41667 7.16742 8.41667 6.79169C8.41667 6.41597 8.26741 6.05563 8.00174 5.78996C7.73606 5.52428 7.37573 5.37503 7 5.37503C6.62428 5.37503 6.26395 5.52428 5.99827 5.78996C5.73259 6.05563 5.58334 6.41597 5.58334 6.79169C5.58334 7.16742 5.73259 7.52775 5.99827 7.79343C6.26395 8.0591 6.62428 8.20836 7 8.20836Z" fill="#FF7943"/>
</svg>
