<svg width="28" height="24" viewBox="0 0 28 24" fill="none" xmlns="http://www.w3.org/2000/svg">
<path d="M26.6193 0H1.38256C1.06166 0 0.802734 0.258923 0.802734 0.579823V18.9303C0.802734 19.2499 1.06166 19.5102 1.38256 19.5102H8.2578C8.97673 20.5128 8.97673 21.8405 8.2578 22.8431H6.22222C5.9027 22.8431 5.6424 23.102 5.6424 23.4229C5.6424 23.7425 5.90132 24.0028 6.22222 24.0028H21.7783C22.0978 24.0028 22.3581 23.7438 22.3581 23.4229C22.3581 23.102 22.0992 22.8431 21.7783 22.8431H19.7427C19.0238 21.8405 19.0238 20.5142 19.7427 19.5102H26.618C26.9375 19.5102 27.1978 19.2512 27.1978 18.9303V0.579823C27.1978 0.258923 26.9389 0 26.6193 0ZM1.961 1.15827H26.0395V14.7063H1.961V1.15827ZM18.3958 22.8417H9.60475C10.0882 21.7826 10.0882 20.5679 9.60475 19.5088H18.3958C17.9123 20.5679 17.9123 21.7826 18.3958 22.8417ZM26.0395 18.3505H1.961V15.8646H26.0395V18.3505Z" fill="#FF7943"/>
<path d="M12.8767 17.6867H15.1244C15.4439 17.6867 15.7042 17.4278 15.7042 17.1069C15.7042 16.786 15.4453 16.527 15.1244 16.527H12.8767C12.5572 16.527 12.2969 16.786 12.2969 17.1069C12.2969 17.4278 12.5572 17.6867 12.8767 17.6867Z" fill="#FF7943"/>
<path d="M8.55402 2.8399C5.7458 2.8399 3.46094 5.12339 3.46094 7.93298C3.46094 10.7426 5.7458 13.0261 8.55402 13.0261C11.3622 13.0261 13.6471 10.7412 13.6471 7.93298C13.6471 5.12477 11.3622 2.8399 8.55402 2.8399ZM4.61921 7.93298C4.61921 5.76381 6.38347 3.99817 8.55402 3.99817C9.42995 3.99817 10.237 4.29015 10.8926 4.77632L8.04581 7.62173C7.93701 7.73053 7.87641 7.88891 7.87641 8.04316C7.87641 8.19742 7.93701 8.3558 8.04581 8.4646L10.7659 11.1833C10.1351 11.6144 9.37348 11.8664 8.55402 11.8664C6.38484 11.8678 4.61921 10.1022 4.61921 7.93298ZM11.617 10.3955L9.2633 8.04316L11.7107 5.59441C12.1968 6.2486 12.4874 7.05567 12.4874 7.93161C12.4888 8.86538 12.161 9.72066 11.617 10.3955Z" fill="#FF7943"/>
<path d="M21.2683 4.76117C20.9488 4.76117 20.6885 5.02009 20.6885 5.34099V12.4462C20.6885 12.7671 20.9474 13.0261 21.2683 13.0261C21.5892 13.0261 21.8481 12.7671 21.8481 12.4462V5.34099C21.8481 5.02009 21.5878 4.76117 21.2683 4.76117Z" fill="#FF7943"/>
<path d="M18.7253 6.34088C18.4058 6.34088 18.1455 6.5998 18.1455 6.9207V12.4476C18.1455 12.7685 18.4044 13.0274 18.7253 13.0274C19.0449 13.0274 19.3052 12.7685 19.3052 12.4476V6.9207C19.3052 6.5998 19.0462 6.34088 18.7253 6.34088Z" fill="#FF7943"/>
<path d="M16.1824 7.92059C15.8628 7.92059 15.6025 8.17952 15.6025 8.50042V12.4462C15.6025 12.7671 15.8615 13.0261 16.1824 13.0261C16.5019 13.0261 16.7622 12.7671 16.7622 12.4462V8.50042C16.7608 8.18089 16.5019 7.92059 16.1824 7.92059Z" fill="#FF7943"/>
<path d="M23.8122 3.18146C23.4927 3.18146 23.2324 3.44038 23.2324 3.76128V12.4476C23.2324 12.7685 23.4913 13.0274 23.8122 13.0274C24.1331 13.0274 24.3921 12.7685 24.3921 12.4476V3.7599C24.3907 3.44038 24.1318 3.18146 23.8122 3.18146Z" fill="#FF7943"/>
</svg>
