<svg width="36" height="36" viewBox="0 0 36 36" fill="none" xmlns="http://www.w3.org/2000/svg">
<path d="M21 3H9C8.20435 3 7.44129 3.31607 6.87868 3.87868C6.31607 4.44129 6 5.20435 6 6V30C6 30.7957 6.31607 31.5587 6.87868 32.1213C7.44129 32.6839 8.20435 33 9 33H27C27.7956 33 28.5587 32.6839 29.1213 32.1213C29.6839 31.5587 30 30.7957 30 30V12L21 3Z" stroke="url(#paint0_linear_171_5754)" stroke-width="3" stroke-linecap="round" stroke-linejoin="round"/>
<path d="M21 3V12H30" stroke="url(#paint1_linear_171_5754)" stroke-width="3" stroke-linecap="round" stroke-linejoin="round"/>
<path d="M24 19.5H12" stroke="url(#paint2_linear_171_5754)" stroke-width="3" stroke-linecap="round" stroke-linejoin="round"/>
<path d="M24 25.5H12" stroke="url(#paint3_linear_171_5754)" stroke-width="3" stroke-linecap="round" stroke-linejoin="round"/>
<path d="M15 13.5H13.5H12" stroke="url(#paint4_linear_171_5754)" stroke-width="3" stroke-linecap="round" stroke-linejoin="round"/>
<defs>
<linearGradient id="paint0_linear_171_5754" x1="30" y1="33" x2="6" y2="33" gradientUnits="userSpaceOnUse">
<stop stop-color="#8ED185"/>
<stop offset="1" stop-color="#44CEF6"/>
</linearGradient>
<linearGradient id="paint1_linear_171_5754" x1="30" y1="12" x2="21" y2="12" gradientUnits="userSpaceOnUse">
<stop stop-color="#8ED185"/>
<stop offset="1" stop-color="#44CEF6"/>
</linearGradient>
<linearGradient id="paint2_linear_171_5754" x1="24" y1="20.5" x2="12" y2="20.5" gradientUnits="userSpaceOnUse">
<stop stop-color="#8ED185"/>
<stop offset="1" stop-color="#44CEF6"/>
</linearGradient>
<linearGradient id="paint3_linear_171_5754" x1="24" y1="26.5" x2="12" y2="26.5" gradientUnits="userSpaceOnUse">
<stop stop-color="#8ED185"/>
<stop offset="1" stop-color="#44CEF6"/>
</linearGradient>
<linearGradient id="paint4_linear_171_5754" x1="15" y1="14.5" x2="12" y2="14.5" gradientUnits="userSpaceOnUse">
<stop stop-color="#8ED185"/>
<stop offset="1" stop-color="#44CEF6"/>
</linearGradient>
</defs>
</svg>
