<svg width="18" height="24" viewBox="0 0 18 24" fill="none" xmlns="http://www.w3.org/2000/svg">
<g clip-path="url(#clip0_171_5692)">
<path d="M17.0805 24H0.448151C0.200174 24 0 23.7998 0 23.5518V5.92456C0 5.81402 0.0418275 5.70945 0.113532 5.62579L4.99241 0.149384C5.07905 0.0537782 5.20154 0 5.32703 0H17.0776C17.3255 0 17.5257 0.200174 17.5257 0.448151V23.5518C17.5287 23.7998 17.3285 24 17.0805 24ZM0.896303 23.1037H16.6324V0.896303H5.53019L0.896303 6.09486V23.1037Z" fill="#FF7943"/>
<path d="M5.32716 6.47429C5.32417 6.47429 5.32118 6.47429 5.31819 6.47429L0.439321 6.37271C0.191344 6.36972 -0.00584305 6.16357 0.000132298 5.9156C0.00610765 5.66762 0.206282 5.47342 0.457247 5.47641L4.87901 5.56604V0.448151C4.87901 0.200174 5.07918 0 5.32716 0C5.57513 0 5.77531 0.200174 5.77531 0.448151V6.02614C5.77531 6.14565 5.72751 6.26217 5.64086 6.34582C5.55721 6.42649 5.44666 6.47429 5.32716 6.47429Z" fill="#FF7943"/>
<path d="M14.789 10.4568H2.73966C2.49168 10.4568 2.2915 10.2567 2.2915 10.0087C2.2915 9.76072 2.49168 9.56055 2.73966 9.56055H14.789C15.0369 9.56055 15.2371 9.76072 15.2371 10.0087C15.2371 10.2567 15.0369 10.4568 14.789 10.4568Z" fill="#FF7943"/>
<path d="M14.789 12.847H2.73966C2.49168 12.847 2.2915 12.6468 2.2915 12.3988C2.2915 12.1509 2.49168 11.9507 2.73966 11.9507H14.789C15.0369 11.9507 15.2371 12.1509 15.2371 12.3988C15.2371 12.6468 15.0369 12.847 14.789 12.847Z" fill="#FF7943"/>
<path d="M14.789 15.2371H2.73966C2.49168 15.2371 2.2915 15.0369 2.2915 14.789C2.2915 14.541 2.49168 14.3408 2.73966 14.3408H14.789C15.0369 14.3408 15.2371 14.541 15.2371 14.789C15.2371 15.0369 15.0369 15.2371 14.789 15.2371Z" fill="#FF7943"/>
<path d="M14.789 17.6273H2.73966C2.49168 17.6273 2.2915 17.4271 2.2915 17.1791C2.2915 16.9311 2.49168 16.731 2.73966 16.731H14.789C15.0369 16.731 15.2371 16.9311 15.2371 17.1791C15.2371 17.4271 15.0369 17.6273 14.789 17.6273Z" fill="#FF7943"/>
<path d="M14.789 20.0174H2.73966C2.49168 20.0174 2.2915 19.8172 2.2915 19.5692C2.2915 19.3213 2.49168 19.1211 2.73966 19.1211H14.789C15.0369 19.1211 15.2371 19.3213 15.2371 19.5692C15.2371 19.8172 15.0369 20.0174 14.789 20.0174Z" fill="#FF7943"/>
<path d="M13.4146 1.84338H12.4795V6.12472H13.4146V1.84338Z" fill="#FF7943"/>
<path d="M10.8062 3.51554V4.45068H15.0875V3.51554H10.8062Z" fill="#FF7943"/>
</g>
<defs>
<clipPath id="clip0_171_5692">
<rect width="17.5287" height="24" fill="white"/>
</clipPath>
</defs>
</svg>
