<svg width="40" height="40" viewBox="0 0 40 40" fill="none" xmlns="http://www.w3.org/2000/svg">
<rect width="40" height="40" fill="#F8F8F8"/>
<g clip-path="url(#clip0_127_3208)">
<path d="M19.6916 32C19.6133 32 19.5307 31.9869 19.4524 31.9565C18.9173 31.7433 6.34089 26.7232 5.62311 18.1794C5.3708 15.1561 6.23649 12.3197 7.99831 10.4057C9.42517 8.85264 11.3349 8 13.3751 8C16.0853 8 18.6345 9.66612 20.1962 12.4633C20.3703 12.7765 20.2615 13.1767 19.9439 13.3507C19.6307 13.5247 19.2305 13.4116 19.0565 13.0984C17.7297 10.7232 15.6068 9.30506 13.3751 9.30506C11.7047 9.30506 10.1343 10.0098 8.9597 11.2887C7.44149 12.9375 6.70196 15.4084 6.92382 18.0707C7.57199 25.814 19.8047 30.6906 19.9309 30.7384C20.2658 30.869 20.4312 31.2474 20.3007 31.5824C20.2006 31.8434 19.9526 32 19.6916 32Z" fill="#FF7943"/>
<path d="M19.6478 32C19.3868 32 19.1388 31.8434 19.0388 31.5867C18.9083 31.2518 19.0736 30.8733 19.4085 30.7428C19.5304 30.6949 31.7674 25.8097 32.4156 18.075C32.6375 15.4127 31.8979 12.9418 30.3797 11.2931C29.2052 10.0098 27.6391 9.30506 25.9643 9.30506C23.6239 9.30506 21.6184 10.671 20.3177 13.1506C20.1524 13.4682 19.7566 13.5943 19.4346 13.4247C19.1171 13.2594 18.9909 12.8635 19.1606 12.5416C20.7006 9.61392 23.1149 8 25.9643 8C28.0089 8 29.9186 8.85264 31.3455 10.4057C33.1073 12.3241 33.973 15.1561 33.7207 18.1794C33.0029 26.7232 20.4265 31.7433 19.8914 31.9521C19.8088 31.9826 19.7305 32 19.6478 32Z" fill="#FF7943"/>
<path d="M14.3361 24.3872C14.323 24.3872 14.31 24.3872 14.2926 24.3872C14.0011 24.3698 13.7618 24.161 13.6966 23.8782L11.6911 14.8559L9.90756 18.2708C9.79445 18.4883 9.57259 18.6232 9.32898 18.6232H4.65253C4.29146 18.6232 4 18.3317 4 17.9706C4 17.6096 4.29146 17.3181 4.65253 17.3181H8.93747L11.3649 12.6678C11.491 12.4241 11.7564 12.2893 12.0305 12.3241C12.3002 12.3589 12.522 12.5633 12.5829 12.8287L14.4883 21.4029L16.0065 17.205C16.0979 16.9483 16.3458 16.7743 16.6199 16.7743H34.6775C35.0386 16.7743 35.3301 17.0658 35.3301 17.4269C35.3301 17.7879 35.0386 18.0794 34.6775 18.0794H17.0767L14.9494 23.9565C14.8537 24.2132 14.6101 24.3872 14.3361 24.3872Z" fill="#FF7943"/>
</g>
<defs>
<clipPath id="clip0_127_3208">
<rect width="31.3301" height="24" fill="white" transform="translate(4 8)"/>
</clipPath>
</defs>
</svg>
