<svg width="33" height="26" viewBox="0 0 33 26" fill="none" xmlns="http://www.w3.org/2000/svg">
<path fill-rule="evenodd" clip-rule="evenodd" d="M16.5266 25C16.519 25 16.5114 24.9999 16.5037 24.9996C16.4967 24.9999 16.4898 25 16.4828 25C16.3496 25 16.2197 24.9592 16.1113 24.8851C14.5143 24.2275 3.55271 19.4618 2.50631 11.6232H1.48749C1.12642 11.6232 0.834961 11.3317 0.834961 10.9706C0.834961 10.6096 1.12642 10.3181 1.48749 10.3181H2.41617C2.37947 7.62218 3.23988 5.13675 4.83327 3.40566C6.26014 1.85264 8.16987 1 10.2101 1C12.6435 1 14.9471 2.34318 16.5227 4.64222C18.0603 2.28517 20.2566 1 22.7992 1C24.8438 1 26.7536 1.85264 28.1804 3.40566C29.666 5.02332 30.5145 7.29053 30.5927 9.77433H31.5125C31.8736 9.77433 32.165 10.0658 32.165 10.4269C32.165 10.7879 31.8736 11.0794 31.5125 11.0794H30.5636C30.5611 11.1127 30.5584 11.1461 30.5556 11.1794C29.875 19.2812 18.5311 24.2144 16.9028 24.8813C16.7934 24.958 16.6617 25 16.5266 25ZM29.2502 11.0794C28.6518 18.1716 18.3107 22.8671 16.5092 23.6327C14.7791 22.9008 4.89058 18.4289 3.82512 11.6232H6.16394C6.40756 11.6232 6.62941 11.4883 6.74252 11.2708L8.5261 7.8559L10.5315 16.8782C10.5968 17.161 10.836 17.3698 11.1275 17.3872H11.171C11.4451 17.3872 11.6887 17.2132 11.7844 16.9565L13.9116 11.0794H29.2502ZM29.2827 9.77433H13.4549C13.1808 9.77433 12.9328 9.94834 12.8415 10.205L11.3233 14.4029L9.41789 5.82871C9.35698 5.56335 9.13512 5.35889 8.86541 5.32409C8.59135 5.28928 8.32599 5.42414 8.19983 5.66775L5.77243 10.3181H3.72143C3.68436 7.9466 4.42059 5.78093 5.79467 4.28874C6.96922 3.00979 8.53964 2.30506 10.2101 2.30506C12.4418 2.30506 14.5647 3.72322 15.8915 6.09842C15.9595 6.22096 16.0622 6.31287 16.1808 6.36894C16.2084 6.3896 16.2381 6.40828 16.2696 6.42469C16.5915 6.59435 16.9874 6.46819 17.1527 6.15063C18.4534 3.67102 20.4588 2.30506 22.7992 2.30506C24.4741 2.30506 26.0401 3.00979 27.2147 4.29309C28.4821 5.66949 29.2069 7.61891 29.2827 9.77433Z" fill="#FF7943"/>
<path d="M16.5037 24.9996L16.52 24.4999L16.5029 24.4993L16.4859 24.4999L16.5037 24.9996ZM16.1113 24.8851L16.3932 24.4722L16.35 24.4427L16.3016 24.4228L16.1113 24.8851ZM2.50631 11.6232L3.00191 11.557L2.944 11.1232H2.50631V11.6232ZM2.41617 10.3181V10.8181H2.92302L2.91612 10.3113L2.41617 10.3181ZM4.83327 3.40566L5.20116 3.74427L5.20147 3.74394L4.83327 3.40566ZM16.5227 4.64222L16.1102 4.92488L16.5329 5.54165L16.9415 4.91541L16.5227 4.64222ZM28.1804 3.40566L28.5487 3.06745L28.5486 3.06737L28.1804 3.40566ZM30.5927 9.77433L30.093 9.79007L30.1082 10.2743H30.5927V9.77433ZM30.5636 11.0794V10.5794H30.0999L30.065 11.0418L30.5636 11.0794ZM30.5556 11.1794L31.0539 11.2213L31.0539 11.221L30.5556 11.1794ZM16.9028 24.8813L16.7133 24.4186L16.6616 24.4398L16.6158 24.4719L16.9028 24.8813ZM16.5092 23.6327L16.3144 24.0932L16.5096 24.1758L16.7047 24.0929L16.5092 23.6327ZM29.2502 11.0794L29.7484 11.1214L29.7942 10.5794H29.2502V11.0794ZM3.82513 11.6232V11.1232H3.24076L3.33114 11.7005L3.82513 11.6232ZM6.74252 11.2708L6.29933 11.0393L6.29891 11.0401L6.74252 11.2708ZM8.5261 7.8559L9.01419 7.74741L8.717 6.41037L8.08291 7.62442L8.5261 7.8559ZM10.5315 16.8782L10.0434 16.9867L10.0443 16.9906L10.5315 16.8782ZM11.1275 17.3872L11.0977 17.8863L11.1126 17.8872H11.1275V17.3872ZM11.7844 16.9565L12.2529 17.1312L12.2545 17.1267L11.7844 16.9565ZM13.9116 11.0794V10.5794H13.5609L13.4415 10.9092L13.9116 11.0794ZM29.2827 9.77433V10.2743H29.8005L29.7823 9.75677L29.2827 9.77433ZM12.8415 10.205L13.3117 10.3751L13.3125 10.3727L12.8415 10.205ZM11.3233 14.4029L10.8352 14.5114L11.2084 16.1908L11.7935 14.573L11.3233 14.4029ZM9.41789 5.82871L9.90599 5.72024L9.90522 5.71686L9.41789 5.82871ZM8.86541 5.32409L8.9294 4.8282L8.9284 4.82807L8.86541 5.32409ZM8.19983 5.66775L8.64308 5.89912L8.64383 5.89768L8.19983 5.66775ZM5.77243 10.3181V10.8181H6.07545L6.21568 10.5495L5.77243 10.3181ZM3.72143 10.3181L3.22149 10.3259L3.22918 10.8181H3.72143V10.3181ZM5.79467 4.28874L6.16248 4.62744L6.16293 4.62695L5.79467 4.28874ZM15.8915 6.09842L16.3285 5.8556L16.328 5.85458L15.8915 6.09842ZM16.1808 6.36894L16.48 5.96837L16.4399 5.93837L16.3946 5.91694L16.1808 6.36894ZM16.2696 6.42469L16.5027 5.98235L16.5005 5.98118L16.2696 6.42469ZM17.1527 6.15063L16.7099 5.91836L16.7092 5.91976L17.1527 6.15063ZM27.2147 4.29309L26.8459 4.63067L26.8469 4.63179L27.2147 4.29309ZM16.4874 25.4994C16.5006 25.4998 16.5136 25.5 16.5266 25.5V24.5C16.5243 24.5 16.5221 24.5 16.52 24.4999L16.4874 25.4994ZM16.4828 25.5C16.4957 25.5 16.5086 25.4998 16.5215 25.4993L16.4859 24.4999C16.4849 24.5 16.4839 24.5 16.4828 24.5V25.5ZM15.8293 25.2981C16.02 25.4283 16.2479 25.5 16.4828 25.5V24.5C16.4512 24.5 16.4195 24.4902 16.3932 24.4722L15.8293 25.2981ZM2.0107 11.6893C2.5618 15.8176 5.70627 19.0751 8.80651 21.3501C11.9246 23.6383 15.1067 25.0122 15.9209 25.3475L16.3016 24.4228C15.5188 24.1005 12.4217 22.7627 9.39814 20.5439C6.35674 18.312 3.49722 15.2674 3.00191 11.557L2.0107 11.6893ZM2.50631 11.1232H1.48749V12.1232H2.50631V11.1232ZM1.48749 11.1232C1.40257 11.1232 1.33496 11.0556 1.33496 10.9706H0.334961C0.334961 11.6078 0.850281 12.1232 1.48749 12.1232V11.1232ZM1.33496 10.9706C1.33496 10.8857 1.40257 10.8181 1.48749 10.8181V9.8181C0.850281 9.8181 0.334961 10.3334 0.334961 10.9706H1.33496ZM1.48749 10.8181H2.41617V9.8181H1.48749V10.8181ZM4.46539 3.06704C2.77158 4.90722 1.87808 7.52325 1.91621 10.3249L2.91612 10.3113C2.88086 7.72112 3.70817 5.36628 5.20116 3.74427L4.46539 3.06704ZM10.2101 0.5C8.02512 0.5 5.98334 1.41488 4.46508 3.06737L5.20147 3.74394C6.53693 2.29039 8.31462 1.5 10.2101 1.5V0.5ZM16.9351 4.35957C15.2838 1.94999 12.8371 0.5 10.2101 0.5V1.5C12.4499 1.5 14.6104 2.73636 16.1102 4.92488L16.9351 4.35957ZM22.7992 0.5C20.0653 0.5 17.7209 1.8903 16.1039 4.36904L16.9415 4.91541C18.3997 2.68004 20.4479 1.5 22.7992 1.5V0.5ZM28.5486 3.06737C27.0303 1.41476 24.9884 0.5 22.7992 0.5V1.5C24.6992 1.5 26.4769 2.29051 27.8122 3.74394L28.5486 3.06737ZM31.0925 9.75859C31.0111 7.17426 30.1275 4.78659 28.5487 3.06745L27.8122 3.74386C29.2046 5.26005 30.0179 7.4068 30.093 9.79007L31.0925 9.75859ZM30.5927 10.2743H31.5125V9.27433H30.5927V10.2743ZM31.5125 10.2743C31.5974 10.2743 31.665 10.3419 31.665 10.4269H32.665C32.665 9.78965 32.1497 9.27433 31.5125 9.27433V10.2743ZM31.665 10.4269C31.665 10.5118 31.5974 10.5794 31.5125 10.5794V11.5794C32.1497 11.5794 32.665 11.0641 32.665 10.4269H31.665ZM31.5125 10.5794H30.5636V11.5794H31.5125V10.5794ZM31.0539 11.221C31.0568 11.1863 31.0596 11.1516 31.0622 11.117L30.065 11.0418C30.0626 11.0738 30.06 11.1058 30.0574 11.1379L31.0539 11.221ZM17.0923 25.344C17.923 25.0038 21.2101 23.585 24.3834 21.2193C27.5383 18.8673 30.6949 15.494 31.0539 11.2213L30.0574 11.1376C29.7357 14.9666 26.88 18.1108 23.7858 20.4176C20.7099 22.7106 17.511 24.0919 16.7133 24.4186L17.0923 25.344ZM16.5266 25.5C16.7649 25.5 16.9967 25.4261 17.1899 25.2907L16.6158 24.4719C16.59 24.4899 16.5585 24.5 16.5266 24.5V25.5ZM16.7047 24.0929C17.6208 23.7036 20.6984 22.3199 23.6302 20.129C26.5396 17.9549 29.4302 14.893 29.7484 11.1214L28.752 11.0374C28.4718 14.358 25.8926 17.19 23.0316 19.328C20.1929 21.4493 17.1991 22.7962 16.3136 23.1725L16.7047 24.0929ZM3.33114 11.7005C3.89612 15.3094 6.77758 18.2318 9.62309 20.3094C12.4893 22.4022 15.4337 23.7206 16.3144 24.0932L16.704 23.1722C15.8546 22.8129 12.9898 21.5294 10.2128 19.5018C7.41513 17.4591 4.81959 14.7427 4.31911 11.5458L3.33114 11.7005ZM6.16394 11.1232H3.82513V12.1232H6.16394V11.1232ZM6.29891 11.0401C6.27145 11.0929 6.22013 11.1232 6.16394 11.1232V12.1232C6.59498 12.1232 6.98738 11.8837 7.18613 11.5015L6.29891 11.0401ZM8.08291 7.62442L6.29933 11.0393L7.18571 11.5023L8.96929 8.08737L8.08291 7.62442ZM11.0196 16.7697L9.01419 7.74741L8.03801 7.96439L10.0434 16.9867L11.0196 16.7697ZM11.1573 16.8881C11.0939 16.8843 11.0356 16.8391 11.0187 16.7658L10.0443 16.9906C10.1579 17.4828 10.5782 17.8553 11.0977 17.8863L11.1573 16.8881ZM11.171 16.8872H11.1275V17.8872H11.171V16.8872ZM11.3159 16.7818C11.291 16.8486 11.2302 16.8872 11.171 16.8872V17.8872C11.6599 17.8872 12.0864 17.5777 12.2529 17.1312L11.3159 16.7818ZM13.4415 10.9092L11.3142 16.7863L12.2545 17.1267L14.3818 11.2496L13.4415 10.9092ZM29.2502 10.5794H13.9116V11.5794H29.2502V10.5794ZM13.4549 10.2743H29.2827V9.27433H13.4549V10.2743ZM13.3125 10.3727C13.3323 10.3171 13.3904 10.2743 13.4549 10.2743V9.27433C12.9712 9.27433 12.5334 9.57962 12.3704 10.0373L13.3125 10.3727ZM11.7935 14.573L13.3117 10.375L12.3713 10.035L10.8531 14.2329L11.7935 14.573ZM8.92979 5.93717L10.8352 14.5114L11.8114 14.2945L9.90598 5.72024L8.92979 5.93717ZM8.80143 5.81998C8.85979 5.82751 8.91562 5.87548 8.93056 5.94055L9.90522 5.71686C9.79835 5.25121 9.41046 4.89027 8.9294 4.8282L8.80143 5.81998ZM8.64383 5.89768C8.67036 5.84644 8.72952 5.81085 8.80243 5.8201L8.9284 4.82807C8.45318 4.76772 7.98162 5.00184 7.75584 5.43782L8.64383 5.89768ZM6.21568 10.5495L8.64308 5.89912L7.75659 5.43638L5.32918 10.0867L6.21568 10.5495ZM3.72143 10.8181H5.77243V9.8181H3.72143V10.8181ZM5.42685 3.95005C3.95011 5.55373 3.18282 7.8517 3.22149 10.3259L4.22137 10.3103C4.18591 8.0415 4.89107 6.00813 6.16248 4.62744L5.42685 3.95005ZM10.2101 1.80506C8.39375 1.80506 6.69158 2.5729 5.4264 3.95054L6.16293 4.62695C7.24685 3.44668 8.68552 2.80506 10.2101 2.80506V1.80506ZM16.328 5.85458C14.9358 3.36234 12.6656 1.80506 10.2101 1.80506V2.80506C12.2179 2.80506 14.1935 4.0841 15.4549 6.34226L16.328 5.85458ZM16.3946 5.91694C16.3663 5.90356 16.3437 5.88282 16.3285 5.8556L15.4544 6.34124C15.5754 6.5591 15.7582 6.72218 15.967 6.82094L16.3946 5.91694ZM16.5005 5.98118C16.493 5.97729 16.4862 5.97299 16.48 5.96837L15.8816 6.7695C15.9307 6.8062 15.9832 6.83927 16.0387 6.8682L16.5005 5.98118ZM16.7092 5.91976C16.6717 5.9918 16.5792 6.02264 16.5027 5.98236L16.0365 6.86702C16.6039 7.16605 17.3031 6.94458 17.5962 6.38149L16.7092 5.91976ZM22.7992 1.80506C20.2327 1.80506 18.0765 3.31308 16.7099 5.91836L17.5955 6.38289C18.8303 4.02895 20.6849 2.80506 22.7992 2.80506V1.80506ZM27.5835 3.95552C26.3183 2.57317 24.6203 1.80506 22.7992 1.80506V2.80506C24.3279 2.80506 25.7619 3.44641 26.8459 4.63067L27.5835 3.95552ZM29.7823 9.75677C29.7032 7.50429 28.9448 5.43379 27.5825 3.9544L26.8469 4.63179C28.0195 5.9052 28.7106 7.73353 28.783 9.79189L29.7823 9.75677Z" fill="#FF7943"/>
</svg>
