<svg width="41" height="40" viewBox="0 0 41 40" fill="none" xmlns="http://www.w3.org/2000/svg">
<rect x="0.333008" width="40" height="40" fill="#F8F8F8"/>
<g clip-path="url(#clip0_127_3219)">
<path d="M10.0313 31.91H13.032C13.032 31.5326 13.032 31.1842 13.032 30.8377C13.032 22.9467 13.032 15.0558 13.0355 7.16484C13.0355 6.92352 12.9858 6.66042 13.0621 6.44632C13.1278 6.25762 13.3372 6.00723 13.4916 5.99997C13.6513 5.99272 13.9103 6.2177 13.9671 6.39552C14.0559 6.67131 14.0204 6.99246 14.0204 7.29366C14.0221 15.1538 14.0221 23.0157 14.0221 30.8758C14.0221 31.1987 14.0221 31.5217 14.0221 31.8937H16.9323C16.9483 31.5634 16.9785 31.2459 16.9785 30.9284C16.982 25.2438 16.982 19.561 16.9838 13.8764C16.9838 13.7258 16.9341 13.5516 16.9891 13.4264C17.1275 13.1143 17.3156 12.8259 17.4824 12.5283C17.6404 12.8313 17.9367 13.1343 17.9385 13.4373C17.9669 19.2126 17.9598 24.9861 17.9598 30.7615C17.9598 31.1171 17.9598 31.4727 17.9598 31.8864H20.9658C20.9658 31.5507 20.9658 31.2314 20.9658 30.9103C20.9658 27.3431 20.9658 23.7759 20.9658 20.2069C20.9658 19.9656 20.9143 19.6971 20.9995 19.4902C21.0723 19.3142 21.2941 19.131 21.4751 19.0983C21.5833 19.0784 21.8158 19.3179 21.8619 19.4794C21.9329 19.7316 21.901 20.0182 21.901 20.2904C21.901 24.1261 21.901 27.9636 21.901 31.8846H24.9194C24.9194 31.1933 24.9212 30.4566 24.9194 29.7182C24.9123 27.3304 24.9017 24.9426 24.8946 22.553C24.8946 22.4314 24.852 22.2736 24.9105 22.1974C25.056 22.0069 25.2477 21.8544 25.4198 21.6875C25.5582 21.8581 25.7889 22.0141 25.8155 22.1992C25.8776 22.6437 25.8475 23.1028 25.8475 23.5564C25.8475 26.3016 25.8475 29.0487 25.8475 31.8683H31.3307C31.0521 31.4618 30.7646 31.1262 30.5783 30.7397C30.486 30.5474 30.5783 30.2625 30.5854 30.0194C30.8232 30.0575 31.1568 30.0085 31.2793 30.1518C31.8045 30.7633 32.2677 31.431 32.7521 32.0806C32.7876 32.1277 32.8497 32.2112 32.8355 32.233C32.202 33.162 31.5632 34.0873 30.9048 34.9963C30.8924 35.0145 30.5482 34.873 30.5073 34.7532C30.4488 34.5863 30.4736 34.3359 30.5624 34.1799C30.7806 33.7952 31.0557 33.445 31.4301 32.9043C30.9563 32.9043 30.6493 32.9043 30.3423 32.9043C22.7155 32.9043 15.0904 32.9043 7.46355 32.9043C7.31627 32.9043 7.14059 32.9587 7.02525 32.8971C6.77859 32.7646 6.5621 32.5705 6.33496 32.4017C6.555 32.2475 6.76439 31.9844 6.99508 31.9626C7.63923 31.9009 8.29047 31.9408 9.09078 31.9408C9.09078 31.5471 9.09078 31.2006 9.09078 30.854C9.09078 25.1694 9.09078 19.4866 9.09078 13.802C9.09078 13.5298 9.04641 13.2395 9.12272 12.9928C9.18128 12.8077 9.39777 12.5609 9.55392 12.5537C9.70121 12.5464 9.93899 12.7896 9.99755 12.9692C10.0774 13.216 10.0313 13.5063 10.0313 13.7784C10.0313 19.463 10.0313 25.1458 10.0313 30.8304C10.0313 31.157 10.0313 31.4836 10.0313 31.91Z" fill="#FF7943"/>
<path d="M34.3328 20.4682C34.1891 21.9198 33.5361 23.0411 32.136 23.6526C30.9435 24.1751 29.531 23.9193 28.5213 22.9595C27.5187 22.0069 27.0627 20.5662 27.6944 19.3379C28.4699 17.8264 29.4778 16.4366 30.4342 15.0286C30.5389 14.8744 31.1174 14.8145 31.2239 14.9379C32.4714 16.3949 33.6603 17.9026 34.2477 19.7915C34.3098 19.9892 34.3027 20.2088 34.3328 20.4701V20.4682ZM31.0482 16.0048C30.9311 16.0102 30.8158 16.0138 30.6986 16.0193C29.9817 17.2494 29.1885 18.4415 28.571 19.7207C28.1096 20.6751 28.5408 21.7637 29.4121 22.4296C30.2479 23.0665 31.4989 23.0846 32.3046 22.4714C33.2113 21.7819 33.6514 20.6624 33.1812 19.6953C32.5583 18.4198 31.7687 17.2295 31.05 16.0029L31.0482 16.0048Z" fill="#FF7943"/>
</g>
<defs>
<clipPath id="clip0_127_3219">
<rect width="28" height="29" fill="white" transform="translate(6.33301 6)"/>
</clipPath>
</defs>
</svg>
