<svg width="21" height="26" viewBox="0 0 21 26" fill="none" xmlns="http://www.w3.org/2000/svg">
<path d="M19.0038 5.09884H3.48841C3.3769 5.09884 3.27533 5.0335 3.22917 4.93193C3.183 4.83037 3.20076 4.71105 3.27462 4.62724C3.5708 4.29058 3.73344 3.85875 3.73344 3.41129C3.73344 2.70247 3.37832 2.07816 2.78313 1.7415C2.77958 1.73937 2.77603 1.73724 2.77319 1.73511C2.77035 1.73369 2.59847 1.63851 2.32431 1.69533L2.20996 1.1385C2.59634 1.05895 2.88257 1.15839 3.00757 1.21734V1H17.4064C18.736 1 19.817 2.08171 19.817 3.41058C19.817 3.99654 19.6039 4.56189 19.2161 5.00225C19.1629 5.06333 19.0855 5.09884 19.0038 5.09884ZM4.02678 4.53064H18.8695C19.1153 4.21032 19.2495 3.81684 19.2495 3.41129C19.2495 2.39493 18.4228 1.5682 17.4071 1.5682H3.50829C4.01257 2.02844 4.30235 2.68613 4.30235 3.41058C4.30235 3.80406 4.20647 4.18759 4.02678 4.53064Z" fill="#112949" stroke="#112949" stroke-width="0.5"/>
<path d="M17.2917 22.1824H14.6872V21.6142H16.7235V4.81474H17.2917V22.1824ZM11.5749 22.1824H0.25V3.82821C0.25 2.26921 1.51921 1 3.07892 1V1.5682C1.83243 1.5682 0.818199 2.58243 0.818199 3.82821V21.6142H11.5749V22.1824Z" fill="#112949" stroke="#112949" stroke-width="0.5"/>
<path d="M10.1394 6.85602H3.74219V7.42422H10.1394V6.85602Z" fill="#112949" stroke="#112949" stroke-width="0.5"/>
<path d="M8.14076 16.3229H3.74219V16.8911H8.14076V16.3229Z" fill="#112949" stroke="#112949" stroke-width="0.5"/>
<path d="M8.14076 18.4401H3.74219V19.0083H8.14076V18.4401Z" fill="#112949" stroke="#112949" stroke-width="0.5"/>
<path d="M12.5393 9.65509H3.74219V10.2233H12.5393V9.65509Z" fill="#112949" stroke="#112949" stroke-width="0.5"/>
<path d="M12.5393 12.0543H3.74219V12.6225H12.5393V12.0543Z" fill="#112949" stroke="#112949" stroke-width="0.5"/>
<path d="M13.3731 20.5745C13.1664 20.5745 12.9647 20.5056 12.7985 20.3749C12.6977 20.2953 12.5599 20.2754 12.4406 20.3237C12.1849 20.4267 11.8987 20.4111 11.655 20.2811C11.4121 20.1512 11.2403 19.9217 11.1841 19.6511C11.1579 19.5247 11.0655 19.4217 10.9427 19.382C10.6806 19.2967 10.4711 19.1007 10.3681 18.8443C10.2658 18.5886 10.2814 18.3024 10.4121 18.0588C10.4732 17.9451 10.4689 17.8066 10.4007 17.6972C10.2544 17.4629 10.2203 17.1788 10.3063 16.9167C10.3922 16.6546 10.5882 16.4458 10.8446 16.3435C10.9647 16.2959 11.0499 16.1865 11.0684 16.0594C11.1067 15.786 11.2637 15.5459 11.4981 15.4003C11.7325 15.2547 12.0173 15.2206 12.2793 15.3073C12.4015 15.3477 12.5372 15.3193 12.6331 15.2334C12.8383 15.0487 13.1125 14.9656 13.3852 15.0047C13.6579 15.0438 13.898 15.2007 14.0436 15.4351C14.1111 15.5445 14.2332 15.6098 14.3625 15.6056C14.6388 15.5963 14.9016 15.7086 15.0862 15.9145C15.2702 16.1198 15.3533 16.3946 15.3135 16.6674C15.2951 16.7952 15.3462 16.9238 15.4478 17.0033C15.6651 17.1731 15.7944 17.4288 15.8036 17.7051C15.8121 17.9806 15.6992 18.2441 15.4939 18.4281C15.4463 18.47 15.4108 18.5247 15.3917 18.5851C15.3782 18.6262 15.3725 18.6696 15.3739 18.7129C15.3746 18.7328 15.3775 18.7527 15.3817 18.7719C15.435 19.0233 15.381 19.2882 15.2333 19.4977C15.0635 19.7392 14.7965 19.8834 14.5017 19.8919C14.3732 19.8962 14.2553 19.9686 14.1949 20.083C14.0649 20.3266 13.8355 20.4985 13.5656 20.5553C13.501 20.5681 13.4371 20.5745 13.3731 20.5745ZM12.5748 19.7293C12.7808 19.7293 12.9846 19.7974 13.1508 19.9281C13.2346 19.9942 13.3433 20.0198 13.4484 19.9977C13.5535 19.9757 13.6423 19.909 13.6927 19.8145C13.849 19.5212 14.1523 19.3329 14.484 19.323C14.5983 19.3195 14.702 19.2633 14.7681 19.1696C14.8263 19.0872 14.8469 18.9871 14.8256 18.8883C14.8149 18.8386 14.8085 18.7875 14.8064 18.7363C14.8014 18.6241 14.8171 18.5133 14.8519 18.4068C14.903 18.2512 14.9939 18.112 15.1161 18.0034C15.1956 17.9323 15.2397 17.8301 15.2361 17.7228C15.2326 17.6156 15.1821 17.5168 15.0983 17.4508C14.837 17.2462 14.7041 16.9146 14.7517 16.5857C14.7673 16.4799 14.7347 16.3733 14.6637 16.2938C14.5919 16.2142 14.4904 16.1695 14.3831 16.1738C14.0507 16.1858 13.7368 16.0168 13.5621 15.7341C13.5059 15.6432 13.4129 15.5821 13.3064 15.5672C13.2005 15.5523 13.094 15.5843 13.0145 15.656C12.7673 15.8783 12.4178 15.9515 12.1025 15.847C12.0009 15.8137 11.8901 15.8265 11.7992 15.8833C11.7083 15.9401 11.6472 16.0331 11.6323 16.139C11.5854 16.4678 11.3653 16.7484 11.057 16.8712C10.9576 16.911 10.8816 16.992 10.8482 17.0935C10.8148 17.1951 10.8283 17.3059 10.8851 17.3968C11.0606 17.6788 11.0726 18.0353 10.915 18.3279C10.8645 18.4224 10.8581 18.5332 10.8979 18.6326C10.9377 18.7321 11.0187 18.8081 11.1209 18.8415C11.437 18.9444 11.6749 19.2101 11.7424 19.5354C11.7644 19.6405 11.8312 19.7293 11.9249 19.7797C12.0194 19.8301 12.1302 19.8365 12.2296 19.796C12.3404 19.7513 12.4583 19.7293 12.5748 19.7293Z" fill="#112949" stroke="#112949" stroke-width="0.5"/>
<path d="M14.8745 25L13.0321 23.1576L11.1904 25V19.644H11.7586V23.6278L13.0321 22.3543L14.3063 23.6278V19.5964H14.8745V25Z" fill="#112949" stroke="#112949" stroke-width="0.5"/>
</svg>
