<svg width="25" height="30" viewBox="0 0 25 30" fill="none" xmlns="http://www.w3.org/2000/svg">
<path d="M1.25 23H23.75M23.75 23L18.75 18M23.75 23L18.75 28M4.75 23L4.75 8M9.75 23L9.75 2M14.75 23L14.75 12M20.2478 2L22.7241 4.34384C23.2138 4.80707 23.5473 5.39736 23.6826 6.04005C23.8178 6.68273 23.7486 7.34895 23.4838 7.95442C23.219 8.55989 22.7704 9.07742 22.1947 9.44153C21.6191 9.80565 20.9423 10 20.25 10C19.5577 10 18.8809 9.80565 18.3053 9.44153C17.7296 9.07742 17.281 8.55989 17.0162 7.95442C16.7514 7.34895 16.6822 6.68273 16.8174 6.04005C16.9527 5.39736 17.2862 4.80707 17.7759 4.34384L20.2478 2Z" stroke="#FF7943" stroke-width="2.3" stroke-linecap="round" stroke-linejoin="round"/>
</svg>
